<svg width="37" height="36" viewBox="0 0 37 36" fill="none" xmlns="http://www.w3.org/2000/svg">
<path d="M29 21C31.235 18.81 33.5 16.185 33.5 12.75C33.5 10.562 32.6308 8.46354 31.0836 6.91637C29.5365 5.36919 27.438 4.5 25.25 4.5C22.61 4.5 20.75 5.25 18.5 7.5C16.25 5.25 14.39 4.5 11.75 4.5C9.56196 4.5 7.46354 5.36919 5.91637 6.91637C4.36919 8.46354 3.5 10.562 3.5 12.75C3.5 16.2 5.75 18.825 8 21L18.5 31.5L29 21Z" stroke="#111111" stroke-width="2" stroke-linecap="round" stroke-linejoin="round"/>
<path d="M18.5 7.5L14.06 11.94C13.7553 12.2426 13.5134 12.6024 13.3483 12.9989C13.1832 13.3953 13.0983 13.8206 13.0983 14.25C13.0983 14.6794 13.1832 15.1047 13.3483 15.5011C13.5134 15.8976 13.7553 16.2574 14.06 16.56C15.29 17.79 17.255 17.835 18.56 16.665L21.665 13.815C22.4433 13.1088 23.4566 12.7176 24.5075 12.7176C25.5585 12.7176 26.5718 13.1088 27.35 13.815L31.79 17.805M27.5 22.5L24.5 19.5M23 27L20 24" stroke="#111111" stroke-width="2" stroke-linecap="round" stroke-linejoin="round"/>
</svg>
