<svg width="36" height="36" viewBox="0 0 36 36" fill="none" xmlns="http://www.w3.org/2000/svg">
<g clip-path="url(#clip0_115_318)">
<path d="M26.54 18C26.5357 16.6554 26.3916 15.3148 26.11 14H29.71C29.5256 13.4512 29.3016 12.9165 29.04 12.4H25.69C25.0606 10.2959 24.0838 8.3119 22.8 6.53001C21.98 6.18521 21.125 5.93038 20.25 5.77001C22.0091 7.65867 23.3365 9.90729 24.14 12.36H18.75V5.60001H17.25V12.37H11.86C12.6652 9.91285 13.9961 7.66063 15.76 5.77001C14.8888 5.92786 14.0372 6.17932 13.22 6.52001C11.9311 8.29443 10.9476 10.2716 10.31 12.37H6.94001C6.67361 12.8959 6.44633 13.4407 6.26001 14H9.89001C9.60844 15.3148 9.46433 16.6554 9.46001 18C9.46303 19.4708 9.63074 20.9366 9.96001 22.37H6.42001C6.62575 22.931 6.8731 23.4759 7.16001 24H10.39C11.0019 25.9159 11.9095 27.7244 13.08 29.36C13.918 29.7193 14.7934 29.9842 15.69 30.15C14.0577 28.3699 12.8025 26.278 12 24H17.26V30.34H18.76V24H24C23.1945 26.2788 21.9359 28.3708 20.3 30.15C21.2008 29.9785 22.0796 29.7068 22.92 29.34C24.0886 27.7106 24.9962 25.9089 25.61 24H28.81C29.0956 23.4855 29.3429 22.9508 29.55 22.4H26C26.345 20.9583 26.5261 19.4823 26.54 18ZM17.25 22.37H11.51C10.8064 19.6178 10.7755 16.7367 11.42 13.97H17.25V22.37ZM24.49 22.37H18.75V14H24.58C24.8674 15.3137 25.0082 16.6553 25 18C25.0093 19.472 24.8381 20.9397 24.49 22.37Z" fill="#111111"/>
<path d="M18 2C14.8355 2 11.7421 2.93838 9.11088 4.69649C6.4797 6.45459 4.42894 8.95345 3.21793 11.8771C2.00693 14.8007 1.69008 18.0177 2.30744 21.1214C2.92481 24.2251 4.44866 27.0761 6.6863 29.3137C8.92394 31.5513 11.7749 33.0752 14.8786 33.6926C17.9823 34.3099 21.1993 33.9931 24.1229 32.7821C27.0466 31.5711 29.5454 29.5203 31.3035 26.8891C33.0616 24.2579 34 21.1645 34 18C34 13.7565 32.3143 9.68687 29.3137 6.68629C26.3131 3.68571 22.2435 2 18 2ZM18 32C15.2311 32 12.5243 31.1789 10.222 29.6406C7.91974 28.1022 6.12532 25.9157 5.06569 23.3576C4.00607 20.7994 3.72882 17.9845 4.26901 15.2687C4.80921 12.553 6.14258 10.0584 8.10051 8.1005C10.0584 6.14257 12.553 4.8092 15.2687 4.26901C17.9845 3.72881 20.7994 4.00606 23.3576 5.06569C25.9157 6.12531 28.1022 7.91973 29.6406 10.222C31.1789 12.5243 32 15.2311 32 18C32 21.713 30.525 25.274 27.8995 27.8995C25.274 30.525 21.713 32 18 32Z" fill="#111111"/>
</g>
<defs>
<clipPath id="clip0_115_318">
<rect width="36" height="36" fill="white"/>
</clipPath>
</defs>
</svg>
