<svg width="37" height="36" viewBox="0 0 37 36" fill="none" xmlns="http://www.w3.org/2000/svg">
<g clip-path="url(#clip0_115_326)">
<path d="M32.8902 19.8366C32.5223 19.5531 32.1005 19.3474 31.6506 19.2321C31.2007 19.1167 30.732 19.0942 30.2731 19.1658C32.9141 16.4995 34.25 13.8488 34.25 11.25C34.25 7.52767 31.2561 4.50001 27.5759 4.50001C26.5994 4.49388 25.6335 4.70156 24.7458 5.10848C23.8581 5.51539 23.0702 6.11168 22.4375 6.85548C21.8048 6.11168 21.0169 5.51539 20.1292 5.10848C19.2415 4.70156 18.2756 4.49388 17.2991 4.50001C13.6189 4.50001 10.625 7.52767 10.625 11.25C10.625 12.7969 11.0806 14.3002 12.0397 15.8906C11.2542 16.0896 10.5374 16.4979 9.96547 17.0719L6.78453 20.25H2.75C2.15326 20.25 1.58097 20.4871 1.15901 20.909C0.737053 21.331 0.5 21.9033 0.5 22.5L0.5 28.125C0.5 28.7217 0.737053 29.294 1.15901 29.716C1.58097 30.138 2.15326 30.375 2.75 30.375H17.375C17.467 30.375 17.5586 30.3636 17.6478 30.3413L26.6478 28.0913C26.7052 28.0776 26.7612 28.0587 26.8152 28.035L32.2812 25.7091L32.3431 25.6809C32.8685 25.4184 33.3183 25.0265 33.6503 24.5421C33.9823 24.0577 34.1855 23.4967 34.2408 22.9121C34.2961 22.3274 34.2016 21.7383 33.9663 21.2003C33.731 20.6622 33.3626 20.1929 32.8958 19.8366H32.8902ZM17.2991 6.75001C18.1704 6.73726 19.0257 6.98468 19.7557 7.46063C20.4857 7.93659 21.0571 8.61944 21.3969 9.42189C21.4816 9.62822 21.6258 9.8047 21.8111 9.92891C21.9964 10.0531 22.2144 10.1194 22.4375 10.1194C22.6606 10.1194 22.8786 10.0531 23.0639 9.92891C23.2492 9.8047 23.3934 9.62822 23.4781 9.42189C23.8179 8.61944 24.3893 7.93659 25.1193 7.46063C25.8493 6.98468 26.7046 6.73726 27.5759 6.75001C29.9736 6.75001 32 8.81017 32 11.25C32 13.9936 29.7795 17.0972 25.5791 20.2359L24.0195 20.5945C24.1564 20.0163 24.1606 19.4145 24.0319 18.8344C23.9031 18.2543 23.6448 17.7108 23.2761 17.2448C22.9074 16.7787 22.4381 16.4021 21.9032 16.1432C21.3683 15.8844 20.7817 15.7499 20.1875 15.75H14.6581C13.4445 14.1131 12.875 12.6731 12.875 11.25C12.875 8.81017 14.9014 6.75001 17.2991 6.75001ZM2.75 22.5H6.125V28.125H2.75V22.5ZM31.3573 23.6545L26.0136 25.9299L17.2344 28.125H8.375V21.8405L11.5573 18.6595C11.7655 18.4497 12.0133 18.2833 12.2864 18.1701C12.5594 18.0569 12.8522 17.9991 13.1478 18H20.1875C20.6351 18 21.0643 18.1778 21.3807 18.4943C21.6972 18.8107 21.875 19.24 21.875 19.6875C21.875 20.1351 21.6972 20.5643 21.3807 20.8808C21.0643 21.1972 20.6351 21.375 20.1875 21.375H16.25C15.9516 21.375 15.6655 21.4935 15.4545 21.7045C15.2435 21.9155 15.125 22.2016 15.125 22.5C15.125 22.7984 15.2435 23.0845 15.4545 23.2955C15.6655 23.5065 15.9516 23.625 16.25 23.625H20.75C20.8347 23.6248 20.9191 23.6154 21.0017 23.5969L30.4236 21.4299L30.4672 21.4186C30.7548 21.3388 31.0618 21.3681 31.3291 21.501C31.5964 21.6339 31.8051 21.8609 31.915 22.1384C32.025 22.4159 32.0284 22.7243 31.9247 23.0042C31.821 23.2841 31.6174 23.5157 31.3531 23.6545H31.3573Z" fill="#111111"/>
</g>
<defs>
<clipPath id="clip0_115_326">
<rect width="36" height="36" fill="white" transform="translate(0.5)"/>
</clipPath>
</defs>
</svg>
