<svg width="250" height="250" viewBox="0 0 250 250" fill="none" xmlns="http://www.w3.org/2000/svg">
<path d="M215.835 58.8949C217.023 58.3699 218.032 57.5081 218.736 56.4159C219.44 55.3237 219.808 54.0491 219.795 52.7499C219.795 49.0799 217.03 46.0949 213.59 46.0799C210.15 46.0649 207.35 49.0249 207.335 52.6949C207.311 54.0048 207.675 55.2927 208.381 56.396C209.088 57.4994 210.105 58.3689 211.305 58.8949C201.72 60.3399 202.155 70.7599 202.155 70.7599L224.82 70.8649C224.82 70.8649 225.34 60.3299 215.835 58.8949Z" fill="#F5F5F5"/>
<path d="M81.91 19.96L67.095 14.72L52.425 19.89C50.555 20.76 48.925 21.28 48.925 23V31.555C48.9066 37.5635 50.5823 43.4555 53.76 48.555C56.9582 53.7528 61.6686 57.849 67.26 60.295C73.26 58.375 77.73 53.265 80.47 48.89C83.6438 43.789 85.3177 37.8977 85.3 31.89V24.195C85.28 21.745 83.96 20.55 81.91 19.96Z" fill="#F5F5F5"/>
<path d="M71.9998 33.7699C72.0033 33.0065 71.7936 32.2572 71.3943 31.6065C70.995 30.9558 70.4219 30.4295 69.7397 30.0869C69.0574 29.7443 68.293 29.599 67.5326 29.6674C66.7722 29.7357 66.046 30.0151 65.4358 30.4739C64.8256 30.9327 64.3556 31.5528 64.0788 32.2643C63.802 32.9758 63.7293 33.7505 63.869 34.5011C64.0087 35.2517 64.3552 35.9483 64.8695 36.5126C65.3837 37.0769 66.0453 37.4864 66.7798 37.6949V43.8299H69.0198V37.6949C69.8761 37.4543 70.6304 36.9408 71.1683 36.2324C71.7061 35.524 71.9981 34.6594 71.9998 33.7699Z" fill="#EBEBEB"/>
<path d="M207.87 99.2449L210.395 100.615L209.26 102.515L206.71 101.015L206.76 103.82H204.58V100.99L202.055 102.5L200.94 100.6L203.465 99.2299L200.94 97.8399L202.055 95.9399L204.6 97.4999V94.6699H206.78L206.73 97.4999L209.28 95.9699L210.415 97.8699L207.87 99.2449Z" fill="#E0E0E0"/>
<path d="M218.39 99.2449L220.915 100.615L219.78 102.515L217.23 101.015L217.28 103.82H215.1L215.125 100.99L212.575 102.52L211.46 100.62L213.985 99.2499L211.46 97.8599L212.575 95.9599L215.125 97.4899L215.1 94.6599H217.28L217.23 97.4899L219.78 95.9599L220.915 97.8599L218.39 99.2449Z" fill="#E0E0E0"/>
<path d="M228.91 99.245L231.44 100.615L230.305 102.515L227.755 101.015L227.8 103.82H225.62L225.645 100.99L223.095 102.52L221.98 100.62L224.51 99.25L222 97.855L223.115 95.955L225.665 97.485L225.64 94.655H227.82L227.775 97.485L230.325 95.955L231.46 97.855L228.91 99.245Z" fill="#E0E0E0"/>
<path d="M121.87 218.93V234.46H144.58H169.63V218.93H121.87Z" fill="#F5F5F5"/>
<path d="M119.865 214.585V218.93H171.3V214.585H144.58H119.865Z" fill="#EBEBEB"/>
<path d="M145.58 234.46H169.63V218.93H171.3V214.585H144.58V218.525L145.58 234.46Z" fill="#EBEBEB"/>
<path d="M138.235 221.43H128.55V223.77H138.235V221.43Z" fill="#E0E0E0"/>
<path d="M139.74 226.695H127.3V231.63H139.74V226.695Z" fill="white"/>
<path d="M129.215 199.075V214.605H151.93H176.98V199.075H129.215Z" fill="#F5F5F5"/>
<path d="M127.21 194.73V199.075H178.65V194.73H151.93H127.21Z" fill="#EBEBEB"/>
<path d="M152.93 214.605H176.98V199.075H178.65V194.73H151.93V198.675L152.93 214.605Z" fill="#EBEBEB"/>
<path d="M145.58 201.58H135.895V203.92H145.58V201.58Z" fill="#E0E0E0"/>
<path d="M147.09 206.84H134.65V211.775H147.09V206.84Z" fill="white"/>
<path d="M232.035 234.58C232.035 234.65 184.11 234.71 125.005 234.71C65.8998 234.71 17.9648 234.65 17.9648 234.58C17.9648 234.51 65.8798 234.45 125.005 234.45C184.13 234.45 232.035 234.5 232.035 234.58Z" fill="#263238"/>
<path d="M199.395 122.86H124.885C123.124 122.86 121.695 124.288 121.695 126.05V164.62C121.695 166.382 123.124 167.81 124.885 167.81H199.395C201.157 167.81 202.585 166.382 202.585 164.62V126.05C202.585 124.288 201.157 122.86 199.395 122.86Z" fill="white"/>
<path d="M199.4 167.81C199.4 167.81 199.615 167.81 200.025 167.735C200.633 167.603 201.19 167.3 201.63 166.86C201.951 166.536 202.198 166.148 202.355 165.72C202.445 165.473 202.505 165.216 202.535 164.955C202.535 164.685 202.535 164.395 202.535 164.095C202.535 162.895 202.535 161.51 202.535 159.955C202.535 153.72 202.51 144.71 202.495 133.575C202.495 132.18 202.495 130.755 202.495 129.3V127.09C202.495 126.345 202.57 125.59 202.265 124.9C202.055 124.377 201.705 123.922 201.255 123.584C200.805 123.246 200.271 123.037 199.71 122.98C199.34 122.955 198.93 122.98 198.54 122.98H193.715H172.805H124.895C124.385 122.979 123.882 123.106 123.433 123.348C122.985 123.591 122.604 123.942 122.325 124.37C122.041 124.794 121.869 125.282 121.825 125.79C121.8 126.29 121.825 126.84 121.825 127.36V145.85C121.825 149.85 121.825 153.783 121.825 157.65V163.37C121.825 163.84 121.825 164.315 121.825 164.775C121.848 165.225 121.967 165.665 122.175 166.065C122.388 166.458 122.683 166.8 123.041 167.068C123.398 167.336 123.809 167.525 124.245 167.62C124.69 167.691 125.141 167.715 125.59 167.69H145.125H163.345L189.725 167.73L196.895 167.755L189.725 167.78L163.345 167.82H145.125H125.59C125.124 167.844 124.656 167.819 124.195 167.745C123.724 167.643 123.28 167.44 122.895 167.15C122.51 166.86 122.193 166.49 121.965 166.065C121.735 165.636 121.604 165.161 121.58 164.675C121.58 164.175 121.58 163.735 121.58 163.26C121.58 161.375 121.58 159.465 121.58 157.54V145.85C121.58 141.85 121.58 137.775 121.58 133.625V127.375C121.58 126.845 121.58 126.335 121.58 125.785C121.617 125.238 121.789 124.709 122.08 124.245C122.384 123.783 122.796 123.402 123.28 123.135C123.77 122.874 124.315 122.736 124.87 122.73H172.78H193.69H198.515C198.915 122.73 199.295 122.73 199.705 122.73C200.106 122.772 200.496 122.887 200.855 123.07C201.569 123.432 202.128 124.039 202.43 124.78C202.576 125.143 202.654 125.529 202.66 125.92C202.66 126.295 202.66 126.67 202.66 127.045V129.255C202.66 130.708 202.66 132.133 202.66 133.53C202.66 144.665 202.625 153.675 202.615 159.91C202.615 161.465 202.615 162.85 202.615 164.05C202.615 164.35 202.615 164.635 202.615 164.915C202.583 165.182 202.519 165.444 202.425 165.695C202.264 166.13 202.01 166.524 201.68 166.85C201.23 167.293 200.66 167.593 200.04 167.715C199.885 167.744 199.728 167.761 199.57 167.765L199.4 167.81Z" fill="#263238"/>
<path d="M149.88 138.745V139.305H147.54V136.305H149.82V136.865H148.235V137.5H149.635V138.045H148.235V138.745H149.88Z" fill="#263238"/>
<path d="M153.21 136.285V139.285H152.635L151.135 137.45V139.285H150.445V136.285H151L152.5 138.12V136.285H153.21Z" fill="#263238"/>
<path d="M154.555 136.855H153.585V136.285H156.22V136.855H155.25V139.305H154.555V136.855Z" fill="#263238"/>
<path d="M158.935 138.745V139.305H156.595V136.305H158.88V136.865H157.29V137.5H158.695V138.045H157.29V138.745H158.935Z" fill="#263238"/>
<path d="M161.42 139.305L160.835 138.465H160.195V139.305H159.5V136.305H160.81C161.615 136.305 162.12 136.72 162.12 137.4C162.126 137.603 162.07 137.804 161.959 137.974C161.848 138.145 161.688 138.278 161.5 138.355L162.175 139.325L161.42 139.305ZM160.765 136.855H160.195V137.905H160.765C161.19 137.905 161.405 137.71 161.405 137.38C161.405 137.05 161.19 136.855 160.765 136.855Z" fill="#263238"/>
<path d="M163.7 137.795C163.72 137.469 163.835 137.156 164.031 136.895C164.227 136.634 164.495 136.436 164.802 136.327C165.11 136.217 165.443 136.2 165.76 136.278C166.077 136.356 166.364 136.525 166.585 136.765L166.135 137.18C166.042 137.069 165.925 136.98 165.794 136.919C165.663 136.858 165.52 136.826 165.375 136.825C165.131 136.843 164.902 136.952 164.735 137.132C164.568 137.311 164.475 137.547 164.475 137.792C164.475 138.038 164.568 138.274 164.735 138.453C164.902 138.633 165.131 138.742 165.375 138.76C165.52 138.762 165.664 138.731 165.796 138.67C165.928 138.608 166.044 138.518 166.135 138.405L166.585 138.82C166.365 139.062 166.078 139.233 165.761 139.313C165.444 139.392 165.11 139.376 164.802 139.267C164.494 139.157 164.225 138.959 164.029 138.697C163.833 138.435 163.718 138.121 163.7 137.795Z" fill="#263238"/>
<path d="M166.805 137.795C166.787 137.464 166.869 137.136 167.04 136.852C167.21 136.568 167.462 136.342 167.763 136.203C168.064 136.064 168.399 136.018 168.726 136.072C169.053 136.126 169.356 136.276 169.597 136.504C169.837 136.732 170.003 137.027 170.074 137.351C170.145 137.674 170.117 138.012 169.995 138.319C169.872 138.627 169.659 138.891 169.385 139.076C169.11 139.262 168.786 139.361 168.455 139.36C168.242 139.372 168.029 139.341 167.829 139.268C167.629 139.195 167.446 139.081 167.292 138.934C167.137 138.788 167.014 138.611 166.93 138.415C166.847 138.219 166.804 138.008 166.805 137.795ZM169.4 137.795C169.396 137.609 169.338 137.428 169.231 137.276C169.125 137.123 168.976 137.005 168.803 136.936C168.63 136.868 168.441 136.852 168.259 136.891C168.077 136.929 167.91 137.021 167.78 137.154C167.65 137.287 167.562 137.455 167.527 137.638C167.492 137.821 167.512 138.01 167.584 138.181C167.656 138.353 167.777 138.499 167.932 138.602C168.087 138.705 168.269 138.76 168.455 138.76C168.582 138.763 168.708 138.74 168.825 138.692C168.942 138.644 169.048 138.573 169.137 138.482C169.226 138.392 169.295 138.284 169.34 138.166C169.385 138.048 169.406 137.922 169.4 137.795Z" fill="#263238"/>
<path d="M170.64 136.285H172C172.398 136.285 172.779 136.443 173.061 136.724C173.342 137.006 173.5 137.387 173.5 137.785C173.5 138.183 173.342 138.564 173.061 138.846C172.779 139.127 172.398 139.285 172 139.285H170.63L170.64 136.285ZM171.975 138.73C172.223 138.73 172.461 138.631 172.636 138.456C172.811 138.281 172.91 138.043 172.91 137.795C172.91 137.547 172.811 137.309 172.636 137.134C172.461 136.958 172.223 136.86 171.975 136.86H171.34V138.73H171.975Z" fill="#263238"/>
<path d="M176.545 138.745V139.305H174.205V136.305H176.5V136.865H174.9V137.5H176.305V138.045H174.9V138.745H176.545Z" fill="#263238"/>
<path d="M138.41 144.13H131.065C129.974 144.13 129.09 145.014 129.09 146.105V157.54C129.09 158.631 129.974 159.515 131.065 159.515H138.41C139.501 159.515 140.385 158.631 140.385 157.54V146.105C140.385 145.014 139.501 144.13 138.41 144.13Z" fill="#EBEBEB"/>
<path d="M152.515 144.13H145.17C144.08 144.13 143.195 145.014 143.195 146.105V157.54C143.195 158.631 144.08 159.515 145.17 159.515H152.515C153.606 159.515 154.49 158.631 154.49 157.54V146.105C154.49 145.014 153.606 144.13 152.515 144.13Z" fill="#EBEBEB"/>
<path d="M166.62 144.13H159.275C158.185 144.13 157.3 145.014 157.3 146.105V157.54C157.3 158.631 158.185 159.515 159.275 159.515H166.62C167.711 159.515 168.595 158.631 168.595 157.54V146.105C168.595 145.014 167.711 144.13 166.62 144.13Z" fill="#EBEBEB"/>
<path d="M180.72 144.13H173.375C172.284 144.13 171.4 145.014 171.4 146.105V157.54C171.4 158.631 172.284 159.515 173.375 159.515H180.72C181.811 159.515 182.695 158.631 182.695 157.54V146.105C182.695 145.014 181.811 144.13 180.72 144.13Z" fill="#EBEBEB"/>
<path d="M194.825 144.13H187.48C186.389 144.13 185.505 145.014 185.505 146.105V157.54C185.505 158.631 186.389 159.515 187.48 159.515H194.825C195.916 159.515 196.8 158.631 196.8 157.54V146.105C196.8 145.014 195.916 144.13 194.825 144.13Z" fill="#EBEBEB"/>
<path d="M137.2 153C137.2 154.095 136.35 154.81 135.2 154.81C133.62 154.81 132.785 153.675 132.785 151.81C132.785 149.78 133.87 148.73 135.455 148.73C135.93 148.709 136.401 148.816 136.82 149.04L136.64 149.39C136.278 149.191 135.868 149.096 135.455 149.115C134.11 149.115 133.225 150 133.225 151.745C133.225 151.986 133.242 152.226 133.275 152.465C133.416 152.078 133.679 151.748 134.025 151.525C134.371 151.302 134.78 151.199 135.19 151.23C136.39 151.23 137.2 151.93 137.2 153ZM136.76 153C136.76 152.145 136.145 151.585 135.13 151.585C134.925 151.562 134.718 151.582 134.521 151.643C134.323 151.704 134.141 151.805 133.985 151.94C133.829 152.074 133.702 152.24 133.612 152.426C133.523 152.611 133.473 152.814 133.465 153.02C133.465 153.725 134.055 154.425 135.18 154.425C135.38 154.447 135.582 154.426 135.773 154.364C135.964 154.303 136.14 154.201 136.29 154.067C136.439 153.932 136.558 153.767 136.639 153.584C136.72 153.4 136.761 153.201 136.76 153Z" fill="#FA4500"/>
<path d="M151.15 153.115H149.89V154.78H149.46V153.115H146.035V152.8L149.295 148.775H149.795L146.595 152.73H149.48V151.265H149.9V152.73H151.16L151.15 153.115Z" fill="#FA4500"/>
<path d="M165.695 155.635C163.954 155.808 162.201 155.808 160.46 155.635C162.201 155.462 163.954 155.462 165.695 155.635Z" fill="#FA4500"/>
<path d="M126.83 128.575C127.507 128.575 128.055 128.027 128.055 127.35C128.055 126.673 127.507 126.125 126.83 126.125C126.153 126.125 125.605 126.673 125.605 127.35C125.605 128.027 126.153 128.575 126.83 128.575Z" fill="#263238"/>
<path d="M131.585 127.35C131.585 127.592 131.513 127.829 131.379 128.031C131.244 128.232 131.053 128.389 130.829 128.482C130.605 128.574 130.359 128.599 130.121 128.551C129.884 128.504 129.665 128.388 129.494 128.216C129.323 128.045 129.206 127.827 129.159 127.589C129.112 127.351 129.136 127.105 129.228 126.881C129.321 126.657 129.478 126.466 129.68 126.331C129.881 126.197 130.118 126.125 130.36 126.125C130.685 126.125 130.997 126.254 131.226 126.484C131.456 126.714 131.585 127.025 131.585 127.35Z" fill="#263238"/>
<path d="M133.825 128.575C134.502 128.575 135.05 128.027 135.05 127.35C135.05 126.673 134.502 126.125 133.825 126.125C133.149 126.125 132.6 126.673 132.6 127.35C132.6 128.027 133.149 128.575 133.825 128.575Z" fill="#263238"/>
<path d="M202.71 130.8C202.71 130.87 184.595 130.93 162.26 130.93C139.925 130.93 121.81 130.87 121.81 130.8C121.81 130.73 139.915 130.67 162.26 130.67C184.605 130.67 202.71 130.725 202.71 130.8Z" fill="#263238"/>
<path d="M187.855 24.145H98.5354C96.7239 24.145 95.2554 25.6135 95.2554 27.425V109.6C95.2554 111.412 96.7239 112.88 98.5354 112.88H187.855C189.667 112.88 191.135 111.412 191.135 109.6V27.425C191.135 25.6135 189.667 24.145 187.855 24.145Z" fill="white"/>
<path d="M187.855 112.88H188.09C188.322 112.861 188.552 112.817 188.775 112.75C189.211 112.617 189.614 112.393 189.959 112.094C190.303 111.795 190.581 111.428 190.775 111.015C191.044 110.395 191.151 109.717 191.085 109.045C191.085 108.3 191.085 107.48 191.085 106.595C191.085 104.825 191.085 102.78 191.085 100.48C191.085 91.28 191.06 77.98 191.04 61.52C191.04 53.295 191.04 44.29 191.04 34.615C191.04 32.2017 191.04 29.7467 191.04 27.25C191.003 26.6396 190.789 26.0531 190.425 25.5615C190.061 25.0699 189.563 24.6943 188.99 24.48C188.395 24.2916 187.767 24.2236 187.145 24.28H169.3H98.5452C97.7943 24.2843 97.0695 24.5555 96.5002 25.045C95.912 25.5417 95.5275 26.2377 95.4202 27C95.3857 27.3823 95.374 27.7663 95.3852 28.15V58.935C95.3852 70.77 95.3852 82.185 95.3852 93.06C95.3852 98.5 95.3852 103.798 95.3852 108.955C95.3852 109.275 95.3852 109.605 95.3852 109.91C95.414 110.217 95.4864 110.518 95.6002 110.805C95.8315 111.379 96.2261 111.873 96.7352 112.225C97.2391 112.577 97.8358 112.772 98.4502 112.785H107.705H134.61L173.57 112.83H184.16L173.57 112.855L134.61 112.895H107.705H98.4452C97.7846 112.878 97.1433 112.669 96.6005 112.292C96.0576 111.915 95.6369 111.388 95.3902 110.775C95.2674 110.468 95.1883 110.144 95.1552 109.815C95.1302 109.475 95.1552 109.165 95.1552 108.84C95.1552 103.683 95.1552 98.385 95.1552 92.945C95.1552 82.07 95.1552 70.655 95.1552 58.82C95.1552 52.9 95.1552 46.8817 95.1552 40.765V28.125C95.1414 27.7295 95.1548 27.3336 95.1952 26.94C95.3051 26.1268 95.711 25.3827 96.3352 24.85C96.948 24.3141 97.7311 24.0129 98.5452 24H169.3H187.115C187.765 23.9439 188.42 24.0187 189.04 24.22C189.653 24.4495 190.187 24.8516 190.576 25.3778C190.966 25.9039 191.195 26.5316 191.235 27.185C191.235 29.685 191.235 32.145 191.235 34.565C191.235 44.24 191.235 53.245 191.235 61.47C191.235 77.92 191.205 91.23 191.195 100.43C191.195 102.73 191.195 104.775 191.195 106.545C191.195 107.43 191.195 108.25 191.195 108.995C191.259 109.679 191.145 110.368 190.865 110.995C190.614 111.521 190.228 111.97 189.745 112.296C189.262 112.622 188.701 112.813 188.12 112.85L187.855 112.88Z" fill="#263238"/>
<path d="M102.5 30.295C102.5 30.6235 102.403 30.9447 102.22 31.2178C102.037 31.4909 101.778 31.7036 101.474 31.8291C101.171 31.9546 100.837 31.9872 100.514 31.9227C100.192 31.8583 99.8966 31.6997 99.6646 31.467C99.4327 31.2344 99.275 30.9381 99.2115 30.6158C99.148 30.2935 99.1816 29.9595 99.308 29.6563C99.4344 29.3531 99.6479 29.0941 99.9216 28.9123C100.195 28.7305 100.517 28.634 100.845 28.635C101.063 28.635 101.279 28.678 101.48 28.7615C101.681 28.845 101.863 28.9673 102.017 29.1215C102.171 29.2757 102.293 29.4588 102.376 29.6601C102.459 29.8615 102.501 30.0773 102.5 30.295Z" fill="#263238"/>
<path d="M105.675 31.9499C106.589 31.9499 107.33 31.2089 107.33 30.2949C107.33 29.3809 106.589 28.6399 105.675 28.6399C104.761 28.6399 104.02 29.3809 104.02 30.2949C104.02 31.2089 104.761 31.9499 105.675 31.9499Z" fill="#263238"/>
<path d="M110.515 31.9499C111.429 31.9499 112.17 31.2089 112.17 30.2949C112.17 29.3809 111.429 28.6399 110.515 28.6399C109.601 28.6399 108.86 29.3809 108.86 30.2949C108.86 31.2089 109.601 31.9499 110.515 31.9499Z" fill="#263238"/>
<path d="M191.135 34.9999C191.135 35.0749 169.67 35.1299 143.195 35.1299C116.72 35.1299 95.2554 35.0749 95.2554 34.9999C95.2554 34.9249 116.715 34.8699 143.195 34.8699C169.675 34.8699 191.135 34.9249 191.135 34.9999Z" fill="#263238"/>
<path d="M156.74 68.425C156.74 68.425 156.775 68.37 156.855 68.27L156.92 68.185L156.985 68.07C157.041 67.977 157.089 67.88 157.13 67.78C157.13 67.725 157.18 67.665 157.2 67.6L157.26 67.39C157.282 67.3129 157.299 67.2344 157.31 67.155C157.31 67.07 157.34 66.985 157.345 66.895C157.378 66.4791 157.358 66.0608 157.285 65.65C157.075 64.5256 156.69 63.4409 156.145 62.435C155.443 61.0924 154.621 59.8157 153.69 58.62C152.57 57.1658 151.349 55.7923 150.035 54.51C148.532 53.034 146.926 51.6656 145.23 50.415C144.335 49.755 143.39 49.115 142.395 48.515C141.381 47.8952 140.327 47.3424 139.24 46.86C138.124 46.3502 136.948 45.9807 135.74 45.76C135.123 45.65 134.492 45.6349 133.87 45.715C133.558 45.7593 133.253 45.8468 132.965 45.975C132.683 46.1138 132.427 46.3017 132.21 46.53C132.003 46.7695 131.844 47.046 131.74 47.345C131.646 47.6464 131.594 47.9594 131.585 48.275C131.577 48.9026 131.663 49.5279 131.84 50.13C132.199 51.3079 132.703 52.4366 133.34 53.49C133.941 54.5147 134.609 55.4985 135.34 56.435C136.05 57.355 136.795 58.225 137.55 59.04C138.986 60.5826 140.53 62.0212 142.17 63.345C143.593 64.5053 145.097 65.5629 146.67 66.51C147.964 67.2969 149.327 67.9663 150.74 68.51C151.803 68.934 152.924 69.1937 154.065 69.28C154.481 69.3005 154.897 69.2719 155.305 69.195C155.395 69.195 155.475 69.15 155.555 69.13C155.633 69.1095 155.71 69.0844 155.785 69.055L155.985 68.97L156.16 68.88C156.256 68.8282 156.346 68.768 156.43 68.7L156.535 68.625L156.615 68.55C156.705 68.46 156.755 68.42 156.755 68.42L156.62 68.555L156.54 68.63L156.44 68.71C156.355 68.779 156.263 68.8393 156.165 68.89L156 69L155.795 69.085C155.722 69.1159 155.647 69.141 155.57 69.16C155.487 69.1886 155.402 69.212 155.315 69.23C154.904 69.3141 154.484 69.3444 154.065 69.32C152.921 69.2422 151.796 68.9876 150.73 68.565C149.312 68.0218 147.944 67.3525 146.645 66.565C145.072 65.6177 143.569 64.5601 142.145 63.4C140.501 62.0779 138.953 60.6391 137.515 59.095C136.76 58.28 136.015 57.41 135.3 56.49C134.571 55.5487 133.903 54.5617 133.3 53.535C132.662 52.4767 132.158 51.343 131.8 50.16C131.618 49.5503 131.531 48.9162 131.54 48.28C131.551 47.9592 131.605 47.6413 131.7 47.335C131.814 47.0251 131.983 46.7387 132.2 46.49C132.422 46.2524 132.687 46.059 132.98 45.92C133.275 45.7885 133.586 45.6977 133.905 45.65C134.536 45.5698 135.174 45.585 135.8 45.695C137.017 45.9176 138.201 46.2904 139.325 46.805C140.414 47.288 141.47 47.8426 142.485 48.465C143.485 49.065 144.43 49.705 145.325 50.37C147.024 51.6228 148.629 52.9964 150.13 54.48C151.447 55.7645 152.67 57.1414 153.79 58.6C154.718 59.799 155.537 61.0792 156.235 62.425C156.779 63.4362 157.162 64.526 157.37 65.655C157.44 66.0695 157.457 66.4912 157.42 66.91C157.413 66.9958 157.399 67.081 157.38 67.165C157.372 67.2449 157.356 67.3237 157.33 67.4L157.27 67.615C157.249 67.6765 157.224 67.7367 157.195 67.795C157.158 67.8976 157.107 67.995 157.045 68.085C157.028 68.1255 157.006 68.164 156.98 68.2L156.915 68.285L156.74 68.425Z" fill="#FA4500"/>
<path d="M161.275 57.465V57.275V57.1699C161.275 57.1299 161.275 57.09 161.25 57.04C161.233 56.9323 161.204 56.8267 161.165 56.7249C161.165 56.6699 161.125 56.6049 161.1 56.5449L161 56.345C160.968 56.2725 160.928 56.2037 160.88 56.14C160.837 56.0649 160.789 55.993 160.735 55.925C160.486 55.5907 160.194 55.2914 159.865 55.035C158.956 54.3367 157.944 53.7835 156.865 53.395C155.448 52.8592 153.985 52.4525 152.495 52.18C150.681 51.8394 148.845 51.6288 147 51.55C144.895 51.4474 142.784 51.4925 140.685 51.685C139.58 51.79 138.45 51.945 137.305 52.16C136.136 52.3709 134.981 52.6599 133.85 53.025C132.675 53.381 131.549 53.8851 130.5 54.525C129.966 54.8527 129.485 55.2609 129.075 55.735C128.872 55.9754 128.704 56.243 128.575 56.5299C128.452 56.8214 128.384 57.1335 128.375 57.45C128.385 57.7658 128.451 58.0773 128.57 58.3699C128.701 58.6559 128.869 58.9233 129.07 59.165C129.483 59.6394 129.965 60.049 130.5 60.38C131.55 61.0169 132.676 61.5208 133.85 61.88C134.983 62.2404 136.137 62.5293 137.305 62.745C138.45 62.96 139.58 63.11 140.685 63.215C142.784 63.4114 144.895 63.4582 147 63.355C148.845 63.2812 150.683 63.0807 152.5 62.755C153.99 62.4824 155.453 62.0757 156.87 61.54C157.947 61.1474 158.958 60.5945 159.87 59.9C160.198 59.6422 160.49 59.343 160.74 59.0099C160.794 58.9402 160.842 58.8666 160.885 58.79C160.933 58.7262 160.973 58.6575 161.005 58.5849L161.105 58.39C161.13 58.325 161.15 58.265 161.17 58.205C161.21 58.1034 161.238 57.9977 161.255 57.89C161.255 57.845 161.255 57.805 161.28 57.765V57.66V57.465C161.28 57.465 161.28 57.53 161.28 57.66V57.765C161.28 57.805 161.28 57.845 161.28 57.895C161.265 58.0025 161.238 58.1081 161.2 58.2099C161.2 58.2699 161.16 58.33 161.135 58.395L161.04 58.595C161.005 58.6675 160.965 58.7376 160.92 58.805C160.876 58.8793 160.828 58.951 160.775 59.02C160.527 59.3575 160.234 59.6602 159.905 59.9199C158.997 60.624 157.985 61.1824 156.905 61.575C155.487 62.1167 154.023 62.5284 152.53 62.805C150.714 63.1467 148.876 63.3605 147.03 63.445C144.923 63.5517 142.811 63.5083 140.71 63.3149C139.6 63.21 138.465 63.06 137.32 62.845C136.148 62.6287 134.991 62.3398 133.855 61.98C132.675 61.6229 131.545 61.1189 130.49 60.48C129.949 60.1475 129.462 59.7344 129.045 59.255C128.842 59.0071 128.674 58.733 128.545 58.4399C128.41 58.1414 128.34 57.8176 128.34 57.49C128.34 57.1623 128.41 56.8385 128.545 56.54C128.676 56.2479 128.844 55.974 129.045 55.7249C129.466 55.2461 129.957 54.8332 130.5 54.5C131.557 53.8618 132.689 53.3579 133.87 53C135.003 52.6355 136.159 52.3465 137.33 52.1349C138.48 51.9199 139.61 51.77 140.72 51.665C142.807 51.4619 144.906 51.4068 147 51.5C148.847 51.5834 150.685 51.799 152.5 52.145C153.993 52.4189 155.457 52.829 156.875 53.3699C157.955 53.7625 158.967 54.3209 159.875 55.025C160.203 55.286 160.495 55.5885 160.745 55.925C160.799 55.9947 160.847 56.0683 160.89 56.145C160.936 56.2116 160.976 56.2818 161.01 56.355L161.105 56.55C161.13 56.615 161.15 56.68 161.17 56.735C161.208 56.8385 161.235 56.9458 161.25 57.055C161.25 57.1 161.25 57.145 161.25 57.18V57.29C161.275 57.4 161.275 57.465 161.275 57.465Z" fill="#FA4500"/>
<path d="M155.265 43.8299L155.1 43.7249L155.01 43.6649C154.973 43.6437 154.935 43.6253 154.895 43.6099C154.8 43.5578 154.699 43.5159 154.595 43.4849C154.535 43.4849 154.475 43.4399 154.41 43.4249L154.195 43.3799C154.117 43.363 154.039 43.3513 153.96 43.3449C153.873 43.3398 153.787 43.3398 153.7 43.3449C153.282 43.3396 152.866 43.3866 152.46 43.4849C151.353 43.7786 150.298 44.2389 149.33 44.8499C148.038 45.6403 146.821 46.5474 145.695 47.5599C144.321 48.7776 143.034 50.0909 141.845 51.4899C140.474 53.0903 139.22 54.7863 138.09 56.5649C137.5 57.4999 136.92 58.4999 136.39 59.4999C135.84 60.5538 135.361 61.6428 134.955 62.7599C134.525 63.9121 134.238 65.1128 134.1 66.3349C134.033 66.9589 134.062 67.5895 134.185 68.2049C134.253 68.513 134.363 68.8106 134.51 69.0899C134.665 69.3657 134.87 69.6099 135.115 69.8099C135.37 69.9951 135.656 70.1324 135.96 70.2149C136.266 70.289 136.58 70.321 136.895 70.3099C137.523 70.2749 138.141 70.1451 138.73 69.9249C139.88 69.4885 140.972 68.9107 141.98 68.2049C142.96 67.5333 143.895 66.7984 144.78 66.0049C145.65 65.2299 146.465 64.4299 147.225 63.6199C148.663 62.0802 149.992 60.4411 151.2 58.7149C152.259 57.2156 153.212 55.6434 154.05 54.0099C154.749 52.6663 155.324 51.2623 155.77 49.8149C156.12 48.7239 156.3 47.5856 156.305 46.4399C156.304 46.0241 156.246 45.6105 156.135 45.2099C156.135 45.1199 156.08 45.0399 156.055 44.9599C156.03 44.8799 156 44.8099 155.965 44.7399L155.87 44.5449C155.835 44.4849 155.795 44.4299 155.765 44.3799C155.708 44.286 155.641 44.1988 155.565 44.1199L155.485 44.0199L155.405 43.9499L155.265 43.8199L155.41 43.9449L155.49 44.0149C155.521 44.0443 155.549 44.076 155.575 44.1099C155.65 44.1895 155.717 44.2766 155.775 44.3699C155.81 44.4249 155.85 44.4749 155.885 44.5349L155.98 44.7349C156.018 44.8051 156.05 44.8787 156.075 44.9549C156.1 45.0349 156.135 45.1149 156.155 45.2049C156.27 45.6066 156.331 46.022 156.335 46.4399C156.337 47.5886 156.16 48.7307 155.81 49.8249C155.366 51.2763 154.794 52.6852 154.1 54.0349C153.262 55.6717 152.31 57.2472 151.25 58.7499C150.045 60.4815 148.716 62.1241 147.275 63.6649C146.515 64.4799 145.7 65.2849 144.825 66.0599C143.939 66.8547 143.002 67.5913 142.02 68.2649C141.008 68.9761 139.911 69.5573 138.755 69.9949C138.16 70.2173 137.534 70.3487 136.9 70.3849C136.577 70.3957 136.254 70.3638 135.94 70.2899C135.627 70.2016 135.332 70.0576 135.07 69.8649C134.817 69.6594 134.605 69.4084 134.445 69.1249C134.294 68.8394 134.181 68.5351 134.11 68.2199C133.989 67.5975 133.962 66.9603 134.03 66.3299C134.165 65.1003 134.454 63.8926 134.89 62.7349C135.296 61.6162 135.775 60.5255 136.325 59.4699C136.86 58.4299 137.435 57.4399 138.03 56.4999C139.166 54.722 140.426 53.0262 141.8 51.4249C142.991 50.0261 144.281 48.7144 145.66 47.4999C146.793 46.4886 148.014 45.5816 149.31 44.7899C150.283 44.1816 151.344 43.7263 152.455 43.4399C152.862 43.3392 153.281 43.2921 153.7 43.2999C153.79 43.2999 153.875 43.2999 153.96 43.2999C154.041 43.3059 154.121 43.3176 154.2 43.3349L154.415 43.3799L154.6 43.4449C154.704 43.4775 154.805 43.521 154.9 43.5749C154.94 43.5903 154.978 43.6087 155.015 43.6299L155.105 43.6949L155.265 43.8299Z" fill="#FA4500"/>
<path d="M128.175 64.2599C128.26 64.3454 128.318 64.454 128.341 64.5723C128.365 64.6905 128.352 64.813 128.306 64.9243C128.26 65.0355 128.182 65.1306 128.081 65.1975C127.981 65.2644 127.863 65.3001 127.743 65.3001C127.622 65.3001 127.504 65.2644 127.404 65.1975C127.304 65.1306 127.226 65.0355 127.18 64.9243C127.133 64.813 127.121 64.6905 127.144 64.5723C127.168 64.454 127.225 64.3454 127.31 64.2599C127.367 64.2029 127.434 64.1577 127.509 64.1268C127.583 64.096 127.662 64.0801 127.743 64.0801C127.823 64.0801 127.903 64.096 127.977 64.1268C128.051 64.1577 128.119 64.2029 128.175 64.2599Z" fill="#FA4500"/>
<path d="M162.67 45.3151C162.671 45.4369 162.636 45.5563 162.569 45.6581C162.502 45.7599 162.406 45.8395 162.294 45.8868C162.181 45.9342 162.058 45.947 161.938 45.9239C161.818 45.9007 161.708 45.8425 161.622 45.7567C161.535 45.6709 161.476 45.5614 161.452 45.4419C161.428 45.3225 161.44 45.1986 161.486 45.0859C161.533 44.9732 161.611 44.8769 161.713 44.8091C161.814 44.7413 161.933 44.7051 162.055 44.7051C162.135 44.7044 162.215 44.7197 162.29 44.7501C162.364 44.7804 162.432 44.8253 162.489 44.882C162.547 44.9387 162.592 45.0062 162.623 45.0805C162.654 45.1548 162.67 45.2346 162.67 45.3151Z" fill="#FA4500"/>
<path d="M132.035 66.27C132.035 66.3006 132.026 66.3306 132.009 66.3561C131.992 66.3816 131.968 66.4015 131.939 66.4132C131.911 66.4249 131.88 66.428 131.85 66.422C131.82 66.416 131.792 66.4013 131.77 66.3796C131.749 66.3579 131.734 66.3303 131.728 66.3002C131.722 66.2702 131.725 66.239 131.737 66.2107C131.749 66.1824 131.768 66.1581 131.794 66.1411C131.819 66.1241 131.849 66.115 131.88 66.115C131.921 66.115 131.961 66.1313 131.99 66.1604C132.019 66.1895 132.035 66.2289 132.035 66.27Z" fill="#FA4500"/>
<path d="M135.35 49.1401C135.35 49.1708 135.341 49.2007 135.324 49.2262C135.307 49.2517 135.283 49.2716 135.254 49.2833C135.226 49.295 135.195 49.2981 135.165 49.2921C135.135 49.2861 135.107 49.2714 135.085 49.2497C135.064 49.228 135.049 49.2004 135.043 49.1703C135.037 49.1403 135.04 49.1091 135.052 49.0808C135.064 49.0525 135.083 49.0283 135.109 49.0112C135.134 48.9942 135.164 48.9851 135.195 48.9851C135.236 48.9851 135.276 49.0014 135.305 49.0305C135.334 49.0596 135.35 49.099 135.35 49.1401Z" fill="#FA4500"/>
<path d="M159.595 57.4651C159.595 57.5062 159.579 57.5456 159.55 57.5747C159.521 57.6037 159.481 57.6201 159.44 57.6201C159.399 57.6201 159.36 57.6037 159.331 57.5747C159.301 57.5456 159.285 57.5062 159.285 57.4651C159.285 57.4239 159.301 57.3845 159.331 57.3555C159.36 57.3264 159.399 57.3101 159.44 57.3101C159.481 57.3101 159.521 57.3264 159.55 57.3555C159.579 57.3845 159.595 57.4239 159.595 57.4651Z" fill="#FA4500"/>
<path d="M161.755 50.2251C161.755 50.2662 161.739 50.3056 161.71 50.3347C161.681 50.3637 161.641 50.3801 161.6 50.3801C161.559 50.3801 161.52 50.3637 161.491 50.3347C161.462 50.3056 161.445 50.2662 161.445 50.2251C161.445 50.184 161.462 50.1445 161.491 50.1155C161.52 50.0864 161.559 50.0701 161.6 50.0701C161.641 50.0701 161.681 50.0864 161.71 50.1155C161.739 50.1445 161.755 50.184 161.755 50.2251Z" fill="#FA4500"/>
<path d="M151.285 60.88H149.365V50.425C149.365 49.2408 148.895 48.1052 148.057 47.2678C147.22 46.4305 146.084 45.96 144.9 45.96C143.716 45.96 142.58 46.4305 141.743 47.2678C140.905 48.1052 140.435 49.2408 140.435 50.425V60.88H138.5V50.425C138.5 48.7316 139.173 47.1076 140.37 45.9102C141.568 44.7127 143.192 44.04 144.885 44.04C146.578 44.04 148.202 44.7127 149.4 45.9102C150.597 47.1076 151.27 48.7316 151.27 50.425L151.285 60.88Z" fill="#FA4500"/>
<g opacity="0.3">
<path d="M151.285 60.88H149.365V50.425C149.365 49.2408 148.895 48.1052 148.057 47.2678C147.22 46.4305 146.084 45.96 144.9 45.96C143.716 45.96 142.58 46.4305 141.743 47.2678C140.905 48.1052 140.435 49.2408 140.435 50.425V60.88H138.5V50.425C138.5 48.7316 139.173 47.1076 140.37 45.9102C141.568 44.7127 143.192 44.04 144.885 44.04C146.578 44.04 148.202 44.7127 149.4 45.9102C150.597 47.1076 151.27 48.7316 151.27 50.425L151.285 60.88Z" fill="black"/>
</g>
<path d="M152.38 56.23H137.42C136.799 56.23 136.295 56.7337 136.295 57.355V66.145C136.295 66.7663 136.799 67.27 137.42 67.27H152.38C153.001 67.27 153.505 66.7663 153.505 66.145V57.355C153.505 56.7337 153.001 56.23 152.38 56.23Z" fill="#FA4500"/>
<g opacity="0.3">
<path d="M146.34 60.3149C146.342 60.0465 146.269 59.7828 146.129 59.5536C145.989 59.3244 145.788 59.1389 145.548 59.018C145.309 58.8971 145.04 58.8457 144.772 58.8694C144.505 58.8932 144.25 58.9912 144.035 59.1525C143.82 59.3138 143.655 59.5319 143.558 59.7821C143.461 60.0324 143.435 60.3048 143.485 60.5687C143.534 60.8326 143.656 61.0774 143.837 61.2756C144.019 61.4737 144.251 61.6172 144.51 61.6899V63.8399H145.29V61.6899C145.591 61.6069 145.857 61.4275 146.046 61.1792C146.236 60.9309 146.339 60.6274 146.34 60.3149Z" fill="black"/>
</g>
<path d="M137.215 66.225C137.175 66.225 137.14 64.385 137.14 62.115C137.14 59.845 137.175 58 137.215 58C137.255 58 137.285 59.84 137.285 62.115C137.285 64.39 137.25 66.225 137.215 66.225Z" fill="#FAFAFA"/>
<path d="M143.775 62.1549C143.775 62.1549 143.705 62.1549 143.605 62.0599C143.464 61.9544 143.339 61.8279 143.235 61.6849C143.053 61.4492 142.926 61.1757 142.863 60.8845C142.8 60.5934 142.803 60.2918 142.872 60.0019C142.94 59.712 143.072 59.441 143.259 59.2088C143.446 58.9766 143.682 58.7891 143.95 58.6599C144.107 58.5759 144.276 58.5169 144.45 58.4849C144.515 58.4728 144.581 58.4728 144.645 58.4849C144.424 58.5599 144.209 58.6501 144 58.7549C143.756 58.8895 143.543 59.0737 143.374 59.2956C143.206 59.5174 143.085 59.7721 143.021 60.0433C142.956 60.3145 142.949 60.5962 143 60.8702C143.051 61.1443 143.158 61.4048 143.315 61.6349C143.454 61.8203 143.608 61.9942 143.775 62.1549Z" fill="#FAFAFA"/>
<path d="M170.45 76.7351H117.465C114.892 76.7351 112.805 78.8215 112.805 81.3951V81.9651C112.805 84.5388 114.892 86.6251 117.465 86.6251H170.45C173.024 86.6251 175.11 84.5388 175.11 81.9651V81.3951C175.11 78.8215 173.024 76.7351 170.45 76.7351Z" fill="#F5F5F5"/>
<path d="M170.905 90.2949H117.92C115.347 90.2949 113.26 92.3813 113.26 94.9549V95.5249C113.26 98.0986 115.347 100.185 117.92 100.185H170.905C173.479 100.185 175.565 98.0986 175.565 95.5249V94.9549C175.565 92.3813 173.479 90.2949 170.905 90.2949Z" fill="#F5F5F5"/>
<path d="M122.65 81.5999V80.1699H123.245V81.5799C123.245 82.0799 123.455 82.2649 123.815 82.2649C124.175 82.2649 124.385 82.0649 124.385 81.5799V80.1699H124.97V81.5999C124.97 81.9076 124.848 82.2026 124.631 82.4202C124.413 82.6377 124.118 82.7599 123.81 82.7599C123.503 82.7599 123.208 82.6377 122.99 82.4202C122.773 82.2026 122.65 81.9076 122.65 81.5999Z" fill="#263238"/>
<path d="M125.325 82.5449L125.51 82.1349C125.717 82.2583 125.954 82.3239 126.195 82.3249C126.46 82.3249 126.555 82.2549 126.555 82.1449C126.555 81.8249 125.37 82.1449 125.37 81.3699C125.37 80.9949 125.705 80.7299 126.28 80.7299C126.542 80.7257 126.802 80.7858 127.035 80.9049L126.845 81.3099C126.673 81.2119 126.478 81.1618 126.28 81.1649C126.025 81.1649 125.915 81.2449 125.915 81.3449C125.915 81.6799 127.1 81.3449 127.1 82.1299C127.1 82.4949 126.765 82.7549 126.175 82.7549C125.878 82.7615 125.585 82.6891 125.325 82.5449Z" fill="#263238"/>
<path d="M129.37 81.9049H127.87C127.901 82.0278 127.975 82.1355 128.079 82.2081C128.183 82.2807 128.309 82.3133 128.435 82.2999C128.527 82.304 128.619 82.2892 128.705 82.2566C128.791 82.2239 128.869 82.174 128.935 82.1099L129.24 82.4399C129.136 82.5477 129.009 82.6317 128.87 82.6861C128.73 82.7405 128.58 82.7639 128.43 82.7549C128.289 82.7727 128.145 82.7601 128.009 82.7179C127.873 82.6757 127.747 82.6049 127.641 82.5102C127.534 82.4155 127.449 82.2991 127.391 82.1688C127.333 82.0386 127.304 81.8974 127.305 81.7549C127.305 81.6193 127.332 81.485 127.386 81.3603C127.439 81.2356 127.517 81.1231 127.616 81.0295C127.714 80.936 127.83 80.8634 127.957 80.8162C128.084 80.769 128.22 80.7481 128.355 80.7549C128.489 80.7516 128.621 80.775 128.746 80.8237C128.87 80.8725 128.983 80.9456 129.079 81.0388C129.174 81.132 129.25 81.2434 129.302 81.3664C129.354 81.4894 129.38 81.6215 129.38 81.7549C129.38 81.7949 129.37 81.8549 129.37 81.9049ZM127.87 81.5699H128.835C128.806 81.464 128.744 81.3705 128.656 81.3038C128.569 81.2372 128.462 81.201 128.353 81.201C128.243 81.201 128.136 81.2372 128.049 81.3038C127.962 81.3705 127.899 81.464 127.87 81.5699Z" fill="#263238"/>
<path d="M131 80.7299V81.2599H130.87C130.8 81.2595 130.731 81.2739 130.667 81.3021C130.602 81.3303 130.545 81.3717 130.498 81.4235C130.451 81.4754 130.415 81.5366 130.393 81.6031C130.371 81.6697 130.363 81.7401 130.37 81.8099V82.7349H129.8V80.7699H130.345V80.9999C130.426 80.9067 130.527 80.8337 130.641 80.7868C130.754 80.7399 130.878 80.7204 131 80.7299Z" fill="#263238"/>
<path d="M133.33 81.5999V82.7249H132.76V81.6899C132.76 81.3699 132.615 81.2249 132.36 81.2249C132.105 81.2249 131.89 81.3949 131.89 81.7549V82.7249H131.32V80.7599H131.865V80.9999C131.95 80.9139 132.051 80.8464 132.163 80.8017C132.275 80.7569 132.395 80.7359 132.515 80.7399C132.628 80.7325 132.741 80.7501 132.847 80.7913C132.952 80.8326 133.047 80.8965 133.125 80.9786C133.202 81.0607 133.261 81.159 133.297 81.2664C133.332 81.3737 133.344 81.4876 133.33 81.5999Z" fill="#263238"/>
<path d="M135.585 81.6051V82.7251H135.05V82.5001C134.984 82.5957 134.894 82.6717 134.788 82.7201C134.683 82.7685 134.566 82.7875 134.45 82.7751C133.99 82.7751 133.715 82.5201 133.715 82.1801C133.715 81.8401 133.96 81.5901 134.56 81.5901H135C135 81.3501 134.855 81.2051 134.545 81.2051C134.342 81.2043 134.144 81.2692 133.98 81.3901L133.775 80.9901C134.028 80.8266 134.324 80.7429 134.625 80.7501C135.235 80.7301 135.585 81.0001 135.585 81.6051ZM135.015 82.1051V81.9051H134.625C134.355 81.9051 134.275 82.0051 134.275 82.1351C134.275 82.2651 134.395 82.3751 134.595 82.3751C134.683 82.3777 134.768 82.3531 134.841 82.3047C134.914 82.2563 134.969 82.1865 135 82.1051H135.015Z" fill="#263238"/>
<path d="M139.42 81.6V82.725H138.85V81.69C138.85 81.37 138.71 81.225 138.48 81.225C138.25 81.225 138.045 81.39 138.045 81.725V82.725H137.5V81.69C137.5 81.37 137.365 81.225 137.125 81.225C136.885 81.225 136.695 81.39 136.695 81.725V82.725H136.1V80.76H136.645V81C136.722 80.9144 136.818 80.8467 136.924 80.8018C137.03 80.7569 137.145 80.7358 137.26 80.74C137.387 80.7341 137.514 80.7609 137.627 80.8178C137.741 80.8747 137.839 80.9598 137.91 81.065C137.995 80.9592 138.103 80.8748 138.227 80.8183C138.35 80.7619 138.485 80.7351 138.62 80.74C138.732 80.7331 138.844 80.7511 138.949 80.7927C139.053 80.8344 139.147 80.8986 139.223 80.9809C139.3 81.0631 139.357 81.1613 139.391 81.2683C139.425 81.3754 139.435 81.4887 139.42 81.6Z" fill="#263238"/>
<path d="M141.87 81.9049H140.37C140.396 82.0297 140.468 82.14 140.572 82.2134C140.676 82.2868 140.804 82.3178 140.93 82.2999C141.022 82.3037 141.114 82.2888 141.2 82.2561C141.286 82.2235 141.364 82.1737 141.43 82.1099L141.73 82.4399C141.626 82.5483 141.5 82.6326 141.36 82.687C141.22 82.7414 141.07 82.7646 140.92 82.7549C140.779 82.772 140.636 82.7588 140.501 82.7162C140.365 82.6736 140.24 82.6027 140.134 82.5081C140.028 82.4135 139.944 82.2974 139.886 82.1675C139.829 82.0376 139.799 81.897 139.8 81.7549C139.8 81.6193 139.828 81.485 139.881 81.3603C139.934 81.2356 140.012 81.1231 140.111 81.0295C140.209 80.936 140.325 80.8634 140.452 80.8162C140.579 80.769 140.715 80.7481 140.85 80.7549C141.116 80.7549 141.37 80.8603 141.557 81.0478C141.745 81.2353 141.85 81.4897 141.85 81.7549C141.88 81.7949 141.875 81.8549 141.87 81.9049ZM140.37 81.5699H141.34C141.324 81.4515 141.263 81.3437 141.17 81.2684C141.078 81.1932 140.96 81.1562 140.84 81.1649C140.726 81.1629 140.616 81.2031 140.53 81.278C140.444 81.3528 140.389 81.4568 140.375 81.5699H140.37Z" fill="#263238"/>
<path d="M145.64 81.7249C145.64 82.3799 145.34 82.7549 144.89 82.7549C144.783 82.762 144.677 82.7347 144.587 82.6772C144.497 82.6196 144.428 82.5347 144.39 82.4349C144.324 82.5389 144.231 82.6234 144.121 82.6797C144.011 82.7359 143.888 82.7619 143.765 82.7549C143.536 82.7311 143.324 82.6234 143.171 82.4526C143.017 82.2817 142.931 82.0599 142.931 81.8299C142.931 81.6 143.017 81.3781 143.171 81.2073C143.324 81.0365 143.536 80.9287 143.765 80.9049C143.871 80.9 143.977 80.9195 144.074 80.962C144.171 81.0045 144.257 81.0688 144.325 81.1499V80.9349H144.825V82.1149C144.825 82.2899 144.9 82.3499 145 82.3499C145.1 82.3499 145.27 82.1549 145.27 81.7349C145.272 81.5605 145.238 81.3875 145.169 81.2272C145.1 81.0669 144.998 80.923 144.869 80.8046C144.741 80.6863 144.59 80.5962 144.424 80.5403C144.259 80.4844 144.084 80.4638 143.91 80.4799C143.559 80.4799 143.222 80.6195 142.973 80.868C142.725 81.1165 142.585 81.4535 142.585 81.8049C142.585 82.1563 142.725 82.4934 142.973 82.7418C143.222 82.9903 143.559 83.1299 143.91 83.1299C144.159 83.1296 144.405 83.075 144.63 82.9699L144.745 83.3049C144.483 83.4247 144.198 83.4844 143.91 83.4799C143.683 83.4924 143.455 83.4583 143.242 83.3799C143.028 83.3015 142.832 83.1803 142.667 83.0237C142.502 82.8672 142.37 82.6786 142.28 82.4695C142.19 82.2604 142.144 82.0351 142.144 81.8074C142.144 81.5798 142.19 81.3545 142.28 81.1454C142.37 80.9362 142.502 80.7476 142.667 80.5911C142.832 80.4346 143.028 80.3134 143.242 80.235C143.455 80.1565 143.683 80.1225 143.91 80.1349C144.13 80.117 144.351 80.1448 144.56 80.2165C144.769 80.2882 144.96 80.4023 145.123 80.5516C145.285 80.7009 145.415 80.8823 145.504 81.0842C145.593 81.2861 145.639 81.5043 145.64 81.7249ZM144.335 81.8299C144.342 81.7659 144.336 81.7011 144.316 81.6399C144.296 81.5787 144.263 81.5225 144.219 81.4751C144.175 81.4277 144.122 81.3902 144.063 81.3651C144.003 81.3401 143.939 81.3281 143.875 81.3299C143.742 81.3299 143.615 81.3826 143.521 81.4764C143.428 81.5701 143.375 81.6973 143.375 81.8299C143.375 81.9625 143.428 82.0897 143.521 82.1835C143.615 82.2773 143.742 82.3299 143.875 82.3299C143.939 82.3318 144.003 82.3198 144.063 82.2947C144.122 82.2697 144.175 82.2322 144.219 82.1848C144.263 82.1374 144.296 82.0812 144.316 82.02C144.336 81.9587 144.342 81.8939 144.335 81.8299Z" fill="#263238"/>
<path d="M149.365 81.6001V82.7251H148.795V81.6901C148.795 81.3701 148.655 81.2251 148.425 81.2251C148.195 81.2251 147.99 81.3901 147.99 81.7251V82.7251H147.42V81.6901C147.42 81.3701 147.285 81.2251 147.045 81.2251C146.805 81.2251 146.615 81.3901 146.615 81.7251V82.7251H146.045V80.7601H146.59V81.0001C146.667 80.9144 146.762 80.8468 146.869 80.8019C146.975 80.757 147.09 80.7359 147.205 80.7401C147.332 80.7342 147.458 80.761 147.572 80.8179C147.686 80.8748 147.783 80.9599 147.855 81.0651C147.939 80.9597 148.047 80.8755 148.169 80.819C148.291 80.7626 148.425 80.7356 148.56 80.7401C148.672 80.7324 148.785 80.7498 148.89 80.7911C148.995 80.8324 149.09 80.8966 149.167 80.9789C149.244 81.0613 149.301 81.1597 149.336 81.2671C149.37 81.3746 149.38 81.4883 149.365 81.6001Z" fill="#263238"/>
<path d="M151.615 81.6051V82.7251H151.085V82.5001C151.019 82.5957 150.928 82.6717 150.823 82.7201C150.717 82.7685 150.601 82.7875 150.485 82.7751C150.025 82.7751 149.75 82.5201 149.75 82.1801C149.75 81.8401 149.995 81.5901 150.595 81.5901H151.045C151.045 81.3501 150.9 81.2051 150.595 81.2051C150.391 81.2025 150.193 81.2676 150.03 81.3901L149.825 80.9901C150.076 80.8275 150.371 80.7439 150.67 80.7501C151.27 80.7301 151.615 81.0001 151.615 81.6051ZM151.045 82.1051V81.9051H150.655C150.39 81.9051 150.305 82.0051 150.305 82.1351C150.305 82.2651 150.425 82.3751 150.625 82.3751C150.715 82.3809 150.804 82.3578 150.879 82.3092C150.955 82.2606 151.013 82.1891 151.045 82.1051Z" fill="#263238"/>
<path d="M152.065 80.17C152.065 80.1251 152.075 80.0808 152.094 80.0399C152.112 79.999 152.139 79.9623 152.172 79.9322C152.206 79.9022 152.245 79.8793 152.288 79.8652C152.33 79.851 152.375 79.8459 152.42 79.85C152.481 79.8568 152.539 79.8811 152.587 79.9201C152.635 79.9591 152.671 80.0111 152.689 80.0699C152.708 80.1286 152.71 80.1916 152.694 80.2512C152.678 80.3108 152.645 80.3645 152.599 80.4058C152.553 80.4471 152.497 80.4743 152.436 80.4841C152.375 80.4938 152.312 80.4858 152.256 80.4609C152.199 80.4359 152.151 80.3952 152.117 80.3436C152.084 80.292 152.065 80.2317 152.065 80.17ZM152.135 80.76H152.7V82.725H152.135V80.76Z" fill="#263238"/>
<path d="M153.235 80H153.805V82.71H153.235V80Z" fill="#263238"/>
<path d="M154.195 82.3999C154.195 82.3058 154.233 82.2155 154.299 82.1489C154.366 82.0823 154.456 82.0449 154.55 82.0449C154.644 82.0449 154.735 82.0823 154.801 82.1489C154.868 82.2155 154.905 82.3058 154.905 82.3999C154.905 82.4941 154.868 82.5844 154.801 82.6509C154.735 82.7175 154.644 82.7549 154.55 82.7549C154.456 82.7549 154.366 82.7175 154.299 82.6509C154.233 82.5844 154.195 82.4941 154.195 82.3999Z" fill="#263238"/>
<path d="M155.12 81.745C155.119 81.6053 155.148 81.467 155.204 81.339C155.26 81.2111 155.343 81.0963 155.446 81.0021C155.549 80.9079 155.671 80.8363 155.803 80.792C155.936 80.7477 156.076 80.7317 156.215 80.745C156.395 80.7298 156.575 80.7694 156.733 80.8587C156.89 80.9479 157.016 81.0826 157.095 81.245L156.655 81.48C156.604 81.4055 156.535 81.3453 156.455 81.3051C156.374 81.265 156.285 81.2463 156.195 81.2508C156.105 81.2553 156.017 81.2828 155.941 81.3308C155.865 81.3788 155.802 81.4455 155.759 81.5247C155.716 81.6039 155.695 81.6927 155.696 81.7828C155.697 81.8729 155.722 81.9611 155.767 82.0389C155.812 82.1168 155.877 82.1817 155.954 82.2274C156.032 82.2732 156.12 82.2982 156.21 82.3C156.302 82.3002 156.392 82.2751 156.47 82.2275C156.549 82.1798 156.613 82.1115 156.655 82.03L157.095 82.27C157.015 82.4315 156.888 82.5654 156.732 82.6545C156.575 82.7436 156.395 82.7838 156.215 82.77C156.074 82.7835 155.931 82.7669 155.797 82.7211C155.663 82.6754 155.54 82.6016 155.436 82.5046C155.333 82.4077 155.251 82.2898 155.196 82.1588C155.142 82.0279 155.116 81.8868 155.12 81.745Z" fill="#263238"/>
<path d="M157.255 81.745C157.239 81.5287 157.288 81.3125 157.397 81.1247C157.505 80.9369 157.668 80.7861 157.863 80.692C158.059 80.5979 158.278 80.5647 158.492 80.5969C158.707 80.6291 158.907 80.7251 159.066 80.8725C159.225 81.0199 159.336 81.2117 159.385 81.4231C159.433 81.6345 159.417 81.8556 159.338 82.0576C159.259 82.2597 159.121 82.4333 158.942 82.5559C158.763 82.6785 158.552 82.7444 158.335 82.745C158.197 82.756 158.058 82.7384 157.928 82.6931C157.797 82.6478 157.677 82.5759 157.576 82.4819C157.474 82.3879 157.393 82.2739 157.338 82.1471C157.283 82.0202 157.254 81.8833 157.255 81.745ZM158.835 81.745C158.826 81.6485 158.79 81.5566 158.73 81.4805C158.67 81.4044 158.589 81.3474 158.497 81.3163C158.405 81.2853 158.307 81.2816 158.213 81.3057C158.119 81.3297 158.034 81.3806 157.969 81.4519C157.903 81.5233 157.86 81.6122 157.844 81.7078C157.828 81.8034 157.84 81.9015 157.879 81.9903C157.918 82.079 157.981 82.1546 158.062 82.2078C158.143 82.261 158.238 82.2896 158.335 82.29C158.405 82.2902 158.473 82.276 158.537 82.2481C158.601 82.2202 158.658 82.1793 158.705 82.128C158.752 82.0767 158.788 82.0161 158.811 81.9501C158.833 81.8842 158.841 81.8143 158.835 81.745Z" fill="#263238"/>
<path d="M163.115 81.6001V82.7251H162.545V81.6901C162.545 81.3701 162.4 81.2251 162.17 81.2251C161.94 81.2251 161.735 81.3901 161.735 81.7251V82.7251H161.165V81.6901C161.165 81.3701 161.03 81.2251 160.795 81.2251C160.56 81.2251 160.365 81.3901 160.365 81.7251V82.7251H159.795V80.7601H160.335V81.0001C160.413 80.9143 160.509 80.8467 160.616 80.8018C160.723 80.7569 160.839 80.7358 160.955 80.7401C161.081 80.7336 161.207 80.7602 161.32 80.8172C161.434 80.8742 161.53 80.9596 161.6 81.0651C161.685 80.9599 161.794 80.8759 161.917 80.8195C162.04 80.7631 162.175 80.7359 162.31 80.7401C162.422 80.7324 162.535 80.7498 162.64 80.7911C162.745 80.8324 162.84 80.8966 162.917 80.9789C162.994 81.0613 163.051 81.1597 163.086 81.2671C163.12 81.3746 163.13 81.4883 163.115 81.6001Z" fill="#263238"/>
<path d="M130.285 95.295L131.21 95.795L130.795 96.49L129.86 95.94V96.97H129.06V95.93L128.155 96.5L127.745 95.805L128.675 95.305L127.745 94.805L128.155 94.11L129.09 94.67V93.635H129.89V94.67L130.825 94.11L131.24 94.805L130.285 95.295Z" fill="#263238"/>
<path d="M134.14 95.295L135.065 95.795L134.65 96.5L133.715 95.95V96.98H132.92V95.94L132 96.5L131.59 95.805L132.515 95.305L131.59 94.805L132 94.11L132.935 94.67V93.635H133.73V94.67L134.665 94.11L135.08 94.805L134.14 95.295Z" fill="#263238"/>
<path d="M138 95.295L138.925 95.795L138.5 96.5L137.57 95.95V96.98H136.77V95.94L135.86 96.5L135.455 95.805L136.38 95.305L135.455 94.805L135.86 94.11L136.795 94.67V93.635H137.595V94.67L138.525 94.11L138.945 94.805L138 95.295Z" fill="#263238"/>
<path d="M141.845 95.295L142.77 95.795L142.355 96.49L141.42 95.94V96.97H140.62V95.93L139.715 96.5L139.305 95.805L140.235 95.305L139.305 94.805L139.715 94.11L140.65 94.67V93.635H141.45V94.67L142.385 94.11L142.8 94.805L141.845 95.295Z" fill="#263238"/>
<path d="M145.7 95.295L146.625 95.795L146.21 96.49L145.275 95.94V96.97H144.5V95.93L143.57 96.5L143.16 95.805L144.085 95.305L143.16 94.805L143.57 94.11L144.5 94.65V93.615H145.295V94.65L146.23 94.09L146.645 94.785L145.7 95.295Z" fill="#263238"/>
<path d="M149.555 95.295L150.48 95.795L150.065 96.49L149.13 95.94V96.97H148.33V95.93L147.42 96.5L147.015 95.805L147.94 95.305L147.015 94.805L147.42 94.11L148.355 94.67V93.635H149.155V94.67L150.09 94.11L150.505 94.805L149.555 95.295Z" fill="#263238"/>
<path d="M153.405 95.295L154.33 95.795L153.915 96.49L152.98 95.94V96.97H152.18V95.93L151.275 96.5L150.865 95.805L151.795 95.305L150.865 94.805L151.275 94.11L152.21 94.67V93.635H153V94.67L153.935 94.11L154.35 94.805L153.405 95.295Z" fill="#263238"/>
<path d="M157.26 95.295L158.185 95.795L157.77 96.49L156.835 95.94V96.97H156.04V95.93L155.13 96.5L154.72 95.805L155.645 95.305L154.72 94.805L155.13 94.11L156.065 94.67V93.635H156.86V94.67L157.795 94.11L158.21 94.805L157.26 95.295Z" fill="#263238"/>
<path d="M111.85 67.675H72.9002C72.6338 67.675 72.3701 67.7276 72.1241 67.8297C71.8781 67.9317 71.6546 68.0814 71.4665 68.2699C71.2784 68.4585 71.1293 68.6823 71.0279 68.9286C70.9264 69.1748 70.8745 69.4387 70.8752 69.705V87.445C70.8718 87.7119 70.9219 87.9767 71.0225 88.2239C71.123 88.4711 71.2721 88.6957 71.4608 88.8844C71.6495 89.0731 71.8741 89.2222 72.1213 89.3227C72.3685 89.4233 72.6333 89.4734 72.9002 89.47H89.2402L92.7102 93.925L95.6052 89.47H111.85C112.116 89.47 112.379 89.4177 112.625 89.3159C112.871 89.2141 113.094 89.065 113.282 88.8769C113.47 88.6889 113.619 88.4657 113.721 88.22C113.823 87.9743 113.875 87.711 113.875 87.445V69.705C113.875 69.1675 113.662 68.6519 113.282 68.2714C112.903 67.8908 112.388 67.6764 111.85 67.675Z" fill="white"/>
<path d="M111.85 67.6749H112.04C112.23 67.6914 112.417 67.7334 112.595 67.7999C112.887 67.9046 113.151 68.0758 113.365 68.2999C113.672 68.6296 113.86 69.0517 113.9 69.4999C113.94 71.4299 113.93 74.2399 113.945 77.7999C113.945 79.5799 113.945 81.5449 113.945 83.6749C113.945 84.7449 113.945 85.8499 113.945 86.9999C113.959 87.2939 113.945 87.5884 113.905 87.8799C113.844 88.1833 113.717 88.4698 113.535 88.7199C113.348 88.9764 113.106 89.1876 112.826 89.3382C112.547 89.4887 112.237 89.5748 111.92 89.5899H95.5801L95.6801 89.5399C94.7701 90.9349 93.7901 92.4499 92.7901 93.9899L92.6951 94.1349L92.5851 93.9999L89.1151 89.5499L89.2151 89.5999H73.5001C73.2151 89.5999 72.9501 89.5999 72.6451 89.5999C72.2014 89.5471 71.7849 89.3582 71.4528 89.0592C71.1206 88.7602 70.8892 88.3657 70.7901 87.9299C70.7403 87.6495 70.7218 87.3644 70.7351 87.0799V79.7549C70.7351 77.6249 70.7351 75.5366 70.7351 73.4899V69.7049C70.7353 69.4415 70.7845 69.1804 70.8801 68.9349C71.0655 68.447 71.4205 68.0423 71.8801 67.7949C72.1097 67.6775 72.3588 67.603 72.6151 67.5749C72.8616 67.5626 73.1086 67.5626 73.3551 67.5749H77.6101H83.0001H92.6701L106.67 67.6149L110.475 67.6399L106.67 67.6649L92.6701 67.7049H83.0001H73.3951C73.1551 67.7049 72.8951 67.7049 72.6801 67.7049C72.453 67.731 72.2326 67.7988 72.0301 67.9049C71.6166 68.1168 71.2948 68.4724 71.1251 68.9049C71.0394 69.1231 70.9953 69.3555 70.9951 69.5899V70.3399C70.9951 71.3399 70.9951 72.3399 70.9951 73.3749V79.6399C70.9951 81.7666 70.9951 83.9333 70.9951 86.1399V86.9699C70.9793 87.2358 70.9944 87.5026 71.0401 87.7649C71.1282 88.148 71.3327 88.4944 71.6254 88.7566C71.9181 89.0189 72.2848 89.1842 72.6751 89.2299C72.9301 89.2549 73.2251 89.2299 73.5001 89.2299H89.3001L89.3401 89.2799L92.8101 93.7299H92.6051L95.5001 89.2799L95.5351 89.2249H95.6051H111.935C112.223 89.2153 112.504 89.14 112.758 89.0048C113.012 88.8696 113.232 88.6781 113.4 88.4449C113.569 88.2205 113.686 87.9606 113.74 87.6849C113.779 87.405 113.792 87.1222 113.78 86.8399C113.78 85.6899 113.78 84.5849 113.78 83.5149C113.78 81.3849 113.78 79.4199 113.78 77.6399C113.78 74.0899 113.78 71.2799 113.805 69.3449C113.761 68.9267 113.586 68.533 113.305 68.2199C113.1 67.9906 112.845 67.811 112.56 67.6949C112.326 67.6545 112.087 67.6478 111.85 67.6749Z" fill="#263238"/>
<path d="M85.0801 72.685V73.34H84.6551V72.68L83.9351 71.5H84.3901L84.8901 72.32L85.3901 71.5H85.8101L85.0801 72.685Z" fill="#263238"/>
<path d="M85.7901 72.4149C85.7811 72.2154 85.832 72.0178 85.9363 71.8476C86.0406 71.6773 86.1934 71.5422 86.3752 71.4595C86.5569 71.3769 86.7593 71.3506 86.9561 71.3839C87.153 71.4173 87.3353 71.5088 87.4797 71.6467C87.6241 71.7846 87.7239 71.9625 87.7663 72.1576C87.8087 72.3527 87.7917 72.5561 87.7175 72.7414C87.6433 72.9268 87.5153 73.0857 87.35 73.1977C87.1848 73.3097 86.9897 73.3697 86.7901 73.3699C86.6609 73.376 86.5319 73.3558 86.4108 73.3105C86.2897 73.2653 86.179 73.1959 86.0855 73.1066C85.992 73.0173 85.9176 72.9099 85.8668 72.791C85.816 72.6721 85.7899 72.5442 85.7901 72.4149ZM87.3801 72.4149C87.3791 72.3004 87.3442 72.1887 87.2799 72.094C87.2156 71.9993 87.1247 71.9257 87.0186 71.8826C86.9125 71.8395 86.7961 71.8287 86.6839 71.8516C86.5717 71.8746 86.4688 71.9302 86.3882 72.0115C86.3076 72.0928 86.2529 72.1962 86.2309 72.3086C86.2089 72.4209 86.2207 72.5373 86.2647 72.643C86.3088 72.7487 86.3831 72.839 86.4784 72.9025C86.5736 72.966 86.6856 72.9999 86.8001 72.9999C86.8772 73.002 86.954 72.9882 87.0257 72.9595C87.0973 72.9308 87.1623 72.8877 87.2167 72.8329C87.271 72.7781 87.3136 72.7127 87.3417 72.6408C87.3698 72.5689 87.3828 72.492 87.3801 72.4149Z" fill="#263238"/>
<path d="M88.125 72.525V71.5H88.555V72.5C88.555 72.85 88.71 73 88.965 73C89.22 73 89.38 72.855 89.38 72.5V71.5H89.805V72.535C89.805 72.7578 89.7165 72.9714 89.559 73.129C89.4014 73.2865 89.1878 73.375 88.965 73.375C88.7422 73.375 88.5286 73.2865 88.371 73.129C88.2135 72.9714 88.125 72.7578 88.125 72.535V72.525Z" fill="#263238"/>
<path d="M91.41 73.34L91.055 72.84H90.66V73.34H90.23V71.5H91.03C91.53 71.5 91.835 71.755 91.835 72.17C91.8405 72.295 91.8069 72.4185 91.7387 72.5234C91.6706 72.6283 91.5714 72.7093 91.455 72.755L91.87 73.35L91.41 73.34ZM91.01 71.84H90.66V72.5H91.01C91.27 72.5 91.4 72.375 91.4 72.175C91.4 71.975 91.27 71.835 91 71.835L91.01 71.84Z" fill="#263238"/>
<path d="M92.8101 72.4148C92.8117 72.2098 92.8764 72.0102 92.9952 71.8431C93.1141 71.676 93.2815 71.5495 93.4747 71.4808C93.6679 71.412 93.8776 71.4043 94.0753 71.4587C94.273 71.5131 94.4492 71.6269 94.5801 71.7849L94.3051 72.0398C94.2484 71.9701 94.1767 71.914 94.0953 71.8759C94.0139 71.8378 93.9249 71.8186 93.8351 71.8198C93.6873 71.8334 93.55 71.9017 93.45 72.0113C93.35 72.121 93.2945 72.264 93.2945 72.4123C93.2945 72.5607 93.35 72.7037 93.45 72.8133C93.55 72.923 93.6873 72.9913 93.8351 73.0048C93.9246 73.007 94.0134 72.9888 94.0949 72.9516C94.1763 72.9143 94.2482 72.859 94.3051 72.7898L94.5801 73.0398C94.4495 73.1974 94.2737 73.3112 94.0765 73.3657C93.8792 73.4203 93.67 73.413 93.477 73.3448C93.284 73.2767 93.1166 73.151 92.9974 72.9847C92.8781 72.8184 92.8127 72.6195 92.8101 72.4148Z" fill="#263238"/>
<path d="M94.7149 72.4149C94.7059 72.2154 94.7568 72.0178 94.8611 71.8476C94.9654 71.6773 95.1182 71.5422 95.3 71.4595C95.4817 71.3769 95.6841 71.3506 95.8809 71.3839C96.0778 71.4173 96.2601 71.5088 96.4045 71.6467C96.5489 71.7846 96.6487 71.9625 96.6911 72.1576C96.7335 72.3527 96.7165 72.5561 96.6423 72.7414C96.5681 72.9268 96.4401 73.0857 96.2748 73.1977C96.1096 73.3097 95.9145 73.3697 95.7149 73.3699C95.5857 73.376 95.4567 73.3558 95.3356 73.3105C95.2145 73.2653 95.1038 73.1959 95.0103 73.1066C94.9168 73.0173 94.8424 72.9099 94.7916 72.791C94.7408 72.6721 94.7147 72.5442 94.7149 72.4149ZM96.3049 72.4149C96.3029 72.3006 96.2672 72.1895 96.2023 72.0954C96.1374 72.0014 96.0461 71.9286 95.94 71.8862C95.8339 71.8438 95.7176 71.8338 95.6057 71.8573C95.4939 71.8808 95.3915 71.9368 95.3114 72.0183C95.2312 72.0998 95.177 72.2031 95.1554 72.3154C95.1338 72.4276 95.1459 72.5437 95.1901 72.6491C95.2342 72.7545 95.3086 72.8445 95.4037 72.9078C95.4989 72.9711 95.6106 73.0049 95.7249 73.0049C95.8025 73.007 95.8797 72.9931 95.9517 72.9641C96.0237 72.9351 96.0889 72.8915 96.1434 72.8362C96.1978 72.7808 96.2402 72.7148 96.268 72.6423C96.2958 72.5699 96.3083 72.4924 96.3049 72.4149Z" fill="#263238"/>
<path d="M97.0649 71.4999H97.9099C98.0395 71.4864 98.1704 71.5003 98.2943 71.5406C98.4181 71.5809 98.5321 71.6468 98.6289 71.7341C98.7256 71.8213 98.803 71.9278 98.8559 72.0468C98.9089 72.1658 98.9362 72.2946 98.9362 72.4249C98.9362 72.5551 98.9089 72.6839 98.8559 72.8029C98.803 72.9219 98.7256 73.0285 98.6289 73.1157C98.5321 73.2029 98.4181 73.2688 98.2943 73.3091C98.1704 73.3495 98.0395 73.3634 97.9099 73.3499H97.0649V71.4999ZM97.8849 72.9999C98.0374 72.9999 98.1837 72.9393 98.2915 72.8315C98.3994 72.7236 98.4599 72.5774 98.4599 72.4249C98.4599 72.2724 98.3994 72.1261 98.2915 72.0183C98.1837 71.9105 98.0374 71.8499 97.8849 71.8499H97.4999V72.9999H97.8849Z" fill="#263238"/>
<path d="M100.69 73V73.345H99.2549V71.5H100.655V71.84H99.6799V72.245H100.54V72.58H99.6799V73H100.69Z" fill="#263238"/>
<path d="M108.05 75.2849H76.7052C75.7249 75.2849 74.9302 76.0796 74.9302 77.0599V83.6799C74.9302 84.6602 75.7249 85.4549 76.7052 85.4549H108.05C109.03 85.4549 109.825 84.6602 109.825 83.6799V77.0599C109.825 76.0796 109.03 75.2849 108.05 75.2849Z" fill="#F5F5F5"/>
<path d="M82.0003 81C82.0012 81.2093 81.9582 81.4165 81.8743 81.6083C81.7903 81.8001 81.6671 81.9721 81.5126 82.1134C81.3582 82.2547 81.1758 82.3621 80.9774 82.4286C80.7789 82.4952 80.5687 82.5195 80.3603 82.5C79.0703 82.5 78.3853 81.57 78.3853 80.03C78.3853 78.36 79.2702 77.505 80.5752 77.505C80.9625 77.4882 81.3473 77.5745 81.6903 77.755L81.5452 78.045C81.2486 77.8825 80.9131 77.8047 80.5752 77.82C79.4702 77.82 78.7453 78.545 78.7453 79.975C78.7437 80.1724 78.7571 80.3696 78.7853 80.565C78.9027 80.2503 79.1195 79.9825 79.4027 79.802C79.686 79.6216 80.0204 79.5384 80.3553 79.565C81.3603 79.53 82.0003 80.105 82.0003 81ZM81.6403 81C81.6403 80.295 81.1403 79.84 80.3053 79.84C80.1376 79.8228 79.9681 79.84 79.8073 79.8905C79.6465 79.941 79.4977 80.0238 79.3699 80.1338C79.2422 80.2437 79.1382 80.3786 79.0643 80.5301C78.9904 80.6816 78.9482 80.8466 78.9403 81.015C78.9403 81.59 79.4403 82.17 80.3503 82.17C80.5154 82.1907 80.683 82.1758 80.8419 82.1263C81.0008 82.0768 81.1473 81.9938 81.2714 81.883C81.3955 81.7721 81.4944 81.6359 81.5615 81.4836C81.6286 81.3313 81.6623 81.1664 81.6603 81H81.6403Z" fill="#FA4500"/>
<path d="M88.5552 81.08H87.5252V82.445H87.1702V81.08H84.3652V80.82L87.0402 77.52H87.4402L84.8152 80.76H87.1802V79.56H87.5252V80.76H88.5552V81.08Z" fill="#FA4500"/>
<path d="M94.0249 81.055C94.0249 81.875 93.4349 82.48 92.2999 82.48C91.9808 82.4923 91.6625 82.4397 91.3642 82.3254C91.066 82.2111 90.7941 82.0375 90.5649 81.815L90.7449 81.54C90.9492 81.7415 91.1925 81.8991 91.4599 82.0032C91.7273 82.1072 92.0132 82.1555 92.2999 82.145C93.1849 82.145 93.6599 81.725 93.6599 81.055C93.6599 80.385 93.2099 79.965 92.2249 79.965H91.9149V79.705L93.3699 77.84H90.7449V77.5H93.8349V77.75L92.3349 79.645C93.4999 79.69 94.0249 80.255 94.0249 81.055Z" fill="#FA4500"/>
<path d="M100 77.5V77.75L97.8852 82.425H97.4902L99.5852 77.82H96.8202V78.765H96.4702V77.5H100Z" fill="#FA4500"/>
<path d="M102.5 80C102.5 78.46 103.295 77.5 104.425 77.5C105.555 77.5 106.355 78.455 106.355 80C106.355 81.545 105.56 82.5 104.425 82.5C103.29 82.5 102.5 81.5 102.5 80ZM106 80C106 78.63 105.36 77.835 104.43 77.835C103.5 77.835 102.86 78.63 102.86 80C102.86 81.37 103.5 82.165 104.43 82.165C105.36 82.165 106 81.35 106 80Z" fill="#FA4500"/>
<path d="M209.7 208.76C216.245 205.98 223.825 200.515 227.2 193.81C219.937 196.825 213.812 202.057 209.7 208.76Z" fill="#263238"/>
<path d="M211.095 198.355C217.64 195.58 225.22 190.115 228.595 183.41C221.33 186.42 215.205 191.651 211.095 198.355Z" fill="#263238"/>
<path d="M213 188.24C219.55 185.46 227.125 179.995 230.5 173.295C223.236 176.306 217.111 181.537 213 188.24Z" fill="#263238"/>
<path d="M215.36 177.65C221.535 174 228.42 167.5 231 160.41C224.138 164.408 218.681 170.43 215.375 177.65" fill="#263238"/>
<path d="M217.9 169.545C222.4 163.66 226.595 154.9 226.54 147.31C221.538 153.712 218.533 161.446 217.9 169.545Z" fill="#263238"/>
<path d="M216.64 173.4C215.73 165.44 212.64 155.435 207.38 149.465C208.268 158.129 211.466 166.395 216.64 173.4Z" fill="#263238"/>
<path d="M214.525 182.105C212.925 173.9 208.875 163.75 202.905 157.995C204.539 166.931 208.554 175.26 214.525 182.105Z" fill="#263238"/>
<path d="M212.095 192.72C210.5 184.5 206.44 174.365 200.5 168.61C202.134 177.546 206.149 185.875 212.12 192.72" fill="#263238"/>
<path d="M210.145 205.755C208.54 197.55 204.49 187.4 198.525 181.645C200.159 190.58 204.174 198.91 210.145 205.755Z" fill="#263238"/>
<path d="M218.205 168C218.18 168.038 218.163 168.081 218.155 168.125C218.12 168.22 218.08 168.34 218.03 168.49C217.92 168.835 217.765 169.31 217.575 169.91C217.18 171.145 216.65 172.94 216.025 175.17C215.4 177.4 214.71 180.065 214 183.04C213.29 186.015 212.59 189.31 211.93 192.78C211.27 196.25 210.755 199.58 210.32 202.61C209.885 205.64 209.575 208.38 209.35 210.68C209.125 212.98 208.965 214.85 208.885 216.145C208.845 216.775 208.815 217.27 208.79 217.645C208.79 217.805 208.79 217.93 208.79 218.035C208.783 218.078 208.783 218.122 208.79 218.165C208.805 218.123 208.813 218.079 208.815 218.035C208.815 217.935 208.815 217.805 208.855 217.65C208.89 217.29 208.94 216.795 209 216.15C209.11 214.865 209.295 213 209.545 210.7C209.795 208.4 210.14 205.67 210.57 202.645C211 199.62 211.57 196.3 212.2 192.83C212.83 189.36 213.56 186.075 214.245 183.095C214.93 180.115 215.61 177.45 216.215 175.215C216.82 172.98 217.32 171.18 217.685 169.94L218.095 168.505C218.135 168.355 218.165 168.23 218.195 168.13C218.204 168.087 218.207 168.044 218.205 168Z" fill="#263238"/>
<path d="M206.5 213.09C209.275 207.28 211.295 199.09 209.935 192.725C206.832 199.034 205.638 206.112 206.5 213.09Z" fill="#455A64"/>
<path d="M201.895 205.565C204.67 199.75 206.69 191.565 205.325 185.2C202.221 191.509 201.029 198.587 201.895 205.565Z" fill="#455A64"/>
<path d="M197.755 197.91C200.53 192.095 202.55 183.91 201.185 177.545C198.081 183.854 196.889 190.933 197.755 197.91Z" fill="#455A64"/>
<path d="M193.675 189.655C195.74 183.505 196.775 175.115 194.675 168.98C192.345 175.629 191.998 182.812 193.675 189.655Z" fill="#455A64"/>
<path d="M191 182.895C190.795 176.35 188.87 168.15 184.805 163.315C184.896 170.309 187.051 177.121 191 182.895Z" fill="#455A64"/>
<path d="M192.245 186.14C187.43 181.6 180.11 177.085 173.53 176.495C178.676 181.491 185.19 184.848 192.245 186.14Z" fill="#455A64"/>
<path d="M195.5 193.03C190.105 188.75 182.085 184.74 175.155 184.725C180.964 189.448 188.045 192.338 195.5 193.03Z" fill="#455A64"/>
<path d="M199.55 201.335C194.155 197.06 186.14 193.045 179.21 193.03C185.018 197.752 192.097 200.642 199.55 201.335Z" fill="#455A64"/>
<path d="M205.205 210.895C199.81 206.615 191.79 202.605 184.86 202.585C190.668 207.311 197.749 210.203 205.205 210.895Z" fill="#455A64"/>
<path d="M190.39 181.71C190.39 181.71 190.39 181.745 190.42 181.815L190.53 182.125L190.98 183.3C191.375 184.3 191.98 185.8 192.745 187.59C194.285 191.185 196.57 196.09 199.405 201.36C200.825 203.985 202.25 206.455 203.58 208.67C204.91 210.885 206.175 212.855 207.26 214.485C208.345 216.115 209.26 217.42 209.88 218.31L210.62 219.31L210.815 219.57C210.86 219.63 210.885 219.66 210.89 219.655C210.874 219.62 210.855 219.587 210.835 219.555L210.66 219.28C210.485 219.025 210.255 218.675 209.96 218.235C209.34 217.33 208.46 216.01 207.405 214.37C206.35 212.73 205.105 210.75 203.775 208.535C202.445 206.32 201.04 203.845 199.62 201.22C196.785 196 194.5 191.1 192.905 187.5C192.115 185.71 191.49 184.255 191.07 183.245L190.57 182.085L190.435 181.785C190.422 181.759 190.407 181.733 190.39 181.71Z" fill="#263238"/>
<path d="M193.29 213.795H220.87V219.11H218.035L215.65 234.27H198.6L196.145 219.11H193.29V213.795Z" fill="#FA4500"/>
<path d="M193.29 219C193.29 218.93 199.42 218.87 206.98 218.87C214.54 218.87 220.67 218.93 220.67 219C220.67 219.07 214.545 219.125 206.98 219.125C199.415 219.125 193.29 219.07 193.29 219Z" fill="#263238"/>
<path d="M35.3049 234.28H30.8299L29.1699 214.125H34.4399L35.3049 234.28Z" fill="#263238"/>
<path d="M74.105 234.28H78.58L80.24 214.125H74.97L74.105 234.28Z" fill="#263238"/>
<path d="M83.3148 216.68L25.6948 218.03L23.9448 180.815C23.9035 179.952 24.0379 179.089 24.34 178.279C24.642 177.469 25.1053 176.729 25.7018 176.103C26.2984 175.478 27.0157 174.98 27.8103 174.64C28.605 174.3 29.4604 174.125 30.3248 174.125H79.4198C80.296 174.125 81.1629 174.305 81.9665 174.654C82.7702 175.004 83.4934 175.514 84.0913 176.155C84.6892 176.795 85.1489 177.552 85.442 178.378C85.735 179.204 85.8551 180.081 85.7948 180.955L83.3148 216.68Z" fill="#FA4500"/>
<path d="M86.2698 180.69H86.1098H85.6348L83.8198 180.72H77.1398C71.4998 180.72 63.7098 180.67 55.1098 180.87C46.5048 181.155 38.7048 181.105 33.0698 181.02C30.2498 180.975 27.9648 180.92 26.3898 180.87L24.5748 180.81H24.1048C24.0517 180.817 23.9979 180.817 23.9448 180.81H24.1048H24.5748H26.3898L33.0698 180.875C38.7098 180.915 46.4998 180.935 55.1048 180.645C63.7098 180.45 71.4998 180.54 77.1398 180.58L83.8198 180.635L85.6348 180.66H86.1098L86.2698 180.69Z" fill="#263238"/>
<path d="M44.9597 174.705C43.6646 174.894 42.4044 175.274 41.2197 175.83C40.0726 176.461 39.026 177.26 38.1147 178.2C38.2982 177.852 38.5401 177.537 38.8297 177.27C40.1588 175.903 41.9026 175.013 43.7897 174.74C44.1746 174.66 44.5707 174.648 44.9597 174.705Z" fill="#263238"/>
<path d="M68.6597 107.04L75.6997 119.905L85.9997 114.135L90.9997 115.79C90.9997 115.79 78.3797 129.5 76.3247 130.215C74.2697 130.93 70.3797 131.045 68.1597 128.26C66.1597 125.725 60.2397 112.425 60.2397 112.425L68.6597 107.04Z" fill="#FFBE9D"/>
<path d="M97.655 98.6402C97.5646 98.5292 97.4473 98.4434 97.3142 98.3908C97.1811 98.3383 97.0368 98.3209 96.895 98.3401L92 99.0002C91.7872 99.0319 91.5838 99.1091 91.4035 99.2264C91.2232 99.3438 91.0702 99.4985 90.955 99.6802L80.75 115.355L81.53 115.79L86.96 115.62L97.81 98.8352L97.655 98.6402Z" fill="#263238"/>
<path d="M94.1797 100.675C94.2189 100.737 94.2765 100.785 94.3446 100.813C94.4126 100.84 94.4876 100.846 94.5588 100.828C94.6301 100.811 94.6941 100.771 94.7418 100.716C94.7895 100.66 94.8184 100.59 94.8245 100.517C94.8306 100.444 94.8135 100.371 94.7757 100.308C94.738 100.245 94.6814 100.196 94.614 100.167C94.5466 100.138 94.4717 100.131 94.4001 100.146C94.3284 100.162 94.2636 100.2 94.2147 100.255C94.157 100.308 94.1213 100.38 94.1148 100.458C94.1084 100.536 94.1315 100.613 94.1797 100.675Z" fill="white"/>
<path d="M97.8099 98.835C97.4988 98.9221 97.1811 98.984 96.8599 99.02L94.2599 99.425L92.4649 99.685C92.3127 99.6986 92.1655 99.746 92.034 99.8239C91.9025 99.9018 91.7901 100.008 91.7049 100.135L91.1249 101.035C90.3199 102.27 89.4449 103.625 88.5249 105.035C86.6699 107.875 84.9799 110.44 83.7399 112.29L82.2649 114.5C82.0934 114.774 81.9012 115.035 81.6899 115.28C81.8307 114.985 81.9981 114.704 82.1899 114.44L83.5899 112.21C84.7849 110.33 86.4449 107.75 88.2999 104.91C89.2299 103.495 90.1149 102.145 90.9199 100.91C91.1249 100.605 91.3249 100.305 91.5149 100.01C91.6215 99.8568 91.7606 99.729 91.9222 99.6357C92.0838 99.5423 92.264 99.4857 92.4499 99.47L94.2549 99.24L96.8699 98.93C97.1803 98.8735 97.4946 98.8417 97.8099 98.835Z" fill="#455A64"/>
<path d="M92.3648 104.43C92.3648 104.43 91.9299 104.355 91.6899 105.55C91.4499 106.745 90.6899 110.175 90.6899 110.175L88.3999 108.96L85.5298 109.335C85.5298 109.335 84.9048 109.91 85.3648 110.225C85.8248 110.54 87.6349 110.86 87.6349 110.86L88.9699 112.785L85.1349 110.935C85.1349 110.935 83.8549 111.27 84.2299 112.05C84.6049 112.83 87.1899 115.275 87.1899 115.275L85.2698 115.13L82.9999 113.74C82.9999 113.74 82.2998 113.775 82.5598 114.37C82.8198 114.965 85.1998 117.125 85.1998 117.125L88.0799 118.525C88.0799 118.525 89.6549 118.4 89.8049 117.935C89.9067 117.569 89.9703 117.194 89.9949 116.815C89.9949 116.815 90.8299 116.59 90.9949 116.185C91.0867 115.844 91.1054 115.488 91.0499 115.14C91.0499 115.14 92.3599 115.37 92.5249 114.64C92.6394 113.73 92.6023 112.808 92.4149 111.91C92.2849 111.345 92.9749 106.12 92.9149 105.965C92.8549 105.81 93.1898 104.085 92.3648 104.43Z" fill="#FFBE9D"/>
<path d="M89.8799 117.945C89.6522 118.081 89.3948 118.16 89.1299 118.175C87.8522 118.361 86.552 118.051 85.4949 117.31C85.0999 117.025 84.9049 116.81 84.9299 116.765C84.9549 116.72 85.8949 117.48 87.2949 117.805C88.6949 118.13 89.8649 117.855 89.8799 117.945Z" fill="#EB996E"/>
<path d="M89.1998 116.91C89.1548 116.975 88.6398 116.71 88.0948 116.26C87.5498 115.81 87.1898 115.365 87.2448 115.31C87.2998 115.255 87.7448 115.595 88.2848 116.035C88.8248 116.475 89.2448 116.84 89.1998 116.91Z" fill="#EB996E"/>
<path d="M90.7147 114.425C90.6697 114.49 90.1597 114.23 89.6497 113.755C89.1397 113.28 88.8397 112.8 88.8997 112.755C88.9597 112.71 89.3597 113.09 89.8497 113.545C90.3397 114 90.7597 114.355 90.7147 114.425Z" fill="#EB996E"/>
<path d="M92.3097 112.42C92.2297 112.455 91.9397 111.92 91.4847 111.325C91.0297 110.73 90.5847 110.325 90.6347 110.245C90.6847 110.165 91.2347 110.515 91.7147 111.145C92.0437 111.496 92.2521 111.943 92.3097 112.42Z" fill="#EB996E"/>
<path d="M94.2547 205.15C94.2929 204.994 94.2929 204.831 94.2547 204.675C94.1737 204.243 94.0034 203.833 93.7547 203.47C93.6735 203.344 93.5778 203.229 93.4697 203.125C93.3989 203.058 93.3113 203.012 93.2163 202.991C93.1212 202.97 93.0222 202.975 92.9297 203.005C92.8753 203.024 92.8259 203.055 92.7852 203.095C92.7445 203.136 92.7136 203.186 92.6947 203.24C92.6597 203.344 92.6597 203.456 92.6947 203.56C92.763 203.734 92.8467 203.901 92.9447 204.06C93.1297 204.375 93.2848 204.685 93.5248 205.06C93.5947 205.161 93.6908 205.241 93.8027 205.291C93.9146 205.341 94.038 205.36 94.1598 205.345C94.3833 205.305 94.5941 205.213 94.7747 205.075C95.1059 204.832 95.4079 204.552 95.6748 204.24C95.8033 204.092 95.9235 203.937 96.0348 203.775C96.1563 203.617 96.2463 203.437 96.2998 203.245C96.3296 203.132 96.319 203.012 96.2697 202.906C96.2203 202.8 96.1354 202.715 96.0297 202.665C95.9308 202.636 95.826 202.633 95.7253 202.655C95.6247 202.678 95.5316 202.726 95.4548 202.795C95.2261 202.995 95.0244 203.223 94.8548 203.475C94.6032 203.828 94.4029 204.216 94.2598 204.625C94.1939 204.769 94.1598 204.926 94.1598 205.085C94.3967 204.559 94.683 204.057 95.0147 203.585C95.1842 203.36 95.3788 203.156 95.5947 202.975C95.7097 202.895 95.8497 202.84 95.9347 202.885C95.9841 202.914 96.022 202.959 96.042 203.013C96.062 203.067 96.063 203.126 96.0447 203.18C95.9929 203.336 95.9133 203.482 95.8097 203.61C95.7047 203.76 95.5897 203.905 95.4697 204.05C95.211 204.341 94.9228 204.604 94.6097 204.835C94.4634 204.948 94.2918 205.023 94.1097 205.055C94.0351 205.064 93.9595 205.052 93.8914 205.02C93.8233 204.989 93.7655 204.938 93.7247 204.875C93.5297 204.59 93.3397 204.235 93.1547 203.94C93.0697 203.785 92.9647 203.635 92.9147 203.51C92.8647 203.385 92.9147 203.285 92.9897 203.245C93.2047 203.16 93.4198 203.405 93.5648 203.61C93.8898 204.075 94.1239 204.598 94.2547 205.15Z" fill="#263238"/>
<path d="M81.9699 205.57L75.8699 218.795L66.0249 214.245L72.3349 197.88L81.9699 205.57Z" fill="#FFBE9D"/>
<path d="M76.9999 217.91L73.4349 224.71C73.4349 224.71 82.5599 234.145 81.7049 236.255L60.2549 225.97L66.1449 212.335L76.9999 217.91Z" fill="#455A64"/>
<path d="M67.2698 220.6C67.0341 220.57 66.7954 220.625 66.5966 220.755C66.3978 220.886 66.2518 221.082 66.1848 221.31C66.1395 221.545 66.1865 221.788 66.3159 221.989C66.4453 222.19 66.6473 222.334 66.8798 222.39C67.1302 222.428 67.3857 222.372 67.5972 222.232C67.8086 222.093 67.9609 221.88 68.0248 221.635C68.046 221.385 67.9693 221.136 67.8107 220.941C67.6522 220.746 67.4242 220.62 67.1748 220.59" fill="#E0E0E0"/>
<g opacity="0.6">
<path d="M60.2749 225.97L61.1649 224.26L81.3999 234.76C81.3999 234.76 82.1549 235.63 81.7249 236.26L60.2749 225.97Z" fill="white"/>
</g>
<path d="M73.8547 224.765C73.8047 224.87 73.2547 224.665 72.5797 224.765C71.9047 224.865 71.4147 225.165 71.3397 225.075C71.2647 224.985 71.7097 224.46 72.5297 224.365C73.3497 224.27 73.9247 224.68 73.8547 224.765Z" fill="#263238"/>
<path d="M75.6597 226.775C75.6597 226.89 75.0947 226.85 74.5297 227.12C73.9647 227.39 73.6347 227.815 73.5297 227.76C73.4247 227.705 73.6447 227.08 74.3597 226.76C75.0747 226.44 75.7047 226.675 75.6597 226.775Z" fill="#263238"/>
<path d="M75.6448 230.08C75.5398 230.08 75.6448 229.465 76.1898 229.02C76.7348 228.575 77.3348 228.58 77.3348 228.69C77.3348 228.8 76.8898 228.96 76.4448 229.33C75.9998 229.7 75.7548 230.12 75.6448 230.08Z" fill="#263238"/>
<path d="M74.8798 222.15C74.7898 222.225 74.3798 221.85 73.7698 221.605C73.1598 221.36 72.6048 221.325 72.5948 221.21C72.5848 221.095 73.2048 220.935 73.9198 221.21C74.6348 221.485 74.9698 222.09 74.8798 222.15Z" fill="#263238"/>
<path d="M79.0299 216.145L95.1149 175.9C95.1149 175.9 94.7499 169.03 93.4849 166.865C92.2199 164.7 53.91 152.045 53.91 152.045C53.91 152.045 44.1549 149.695 37.6449 152.045C31.1349 154.395 26.2599 162.545 27.1449 167.045C28.0299 171.545 31.86 174.88 31.86 174.88L60.035 175.72L75.3899 181.32L65.05 210.955L79.0299 216.145Z" fill="#263238"/>
<path d="M93.3349 188.645L93.6999 203.2L82.8549 203.47L81.2949 186L93.3349 188.645Z" fill="#FFBE9D"/>
<path d="M94.345 201.9L94.145 209.575C94.145 209.575 106.495 214.01 106.645 216.285L82.86 216.525L82.125 201.69L94.345 201.9Z" fill="#455A64"/>
<path d="M86.7798 208.62C86.5517 208.692 86.3582 208.845 86.2364 209.051C86.1145 209.257 86.073 209.5 86.1198 209.735C86.1834 209.965 86.3328 210.163 86.5374 210.286C86.742 210.41 86.9862 210.451 87.2198 210.4C87.4609 210.323 87.6647 210.159 87.7922 209.94C87.9196 209.721 87.9615 209.463 87.9098 209.215C87.8199 208.981 87.6422 208.791 87.4144 208.685C87.1866 208.58 86.9267 208.567 86.6898 208.65" fill="#E0E0E0"/>
<g opacity="0.6">
<path d="M82.875 216.525L82.92 214.595L105.71 215.095C105.71 215.095 106.77 215.545 106.66 216.295L82.875 216.525Z" fill="white"/>
</g>
<path d="M94.5299 209.45C94.5299 209.565 93.9449 209.625 93.3799 210.005C92.8149 210.385 92.5099 210.875 92.4049 210.83C92.2999 210.785 92.4649 210.11 93.1599 209.665C93.8549 209.22 94.5549 209.345 94.5299 209.45Z" fill="#263238"/>
<path d="M97.0346 210.455C97.0646 210.57 96.5596 210.77 96.1696 211.265C95.7796 211.76 95.6696 212.265 95.5596 212.265C95.4496 212.265 95.3596 211.605 95.8596 210.995C96.3596 210.385 97.0296 210.345 97.0346 210.455Z" fill="#263238"/>
<path d="M98.4999 213.43C98.3949 213.455 98.2299 212.875 98.4999 212.235C98.7699 211.595 99.3349 211.34 99.3849 211.435C99.4349 211.53 99.0999 211.875 98.8849 212.4C98.6699 212.925 98.5949 213.415 98.4999 213.43Z" fill="#263238"/>
<path d="M94.2896 206.65C94.2446 206.755 93.7096 206.6 93.0546 206.65C92.3996 206.7 91.8896 206.915 91.8246 206.815C91.7596 206.715 92.2496 206.315 93.0246 206.25C93.7996 206.185 94.3496 206.555 94.2896 206.65Z" fill="#263238"/>
<path d="M86.9996 148.225C86.9996 148.225 93.4996 147.725 94.2196 154.755C94.9396 161.785 95.6496 194.695 95.6496 194.695L80.4996 195.96L78.1496 162.345L53.9346 152.045C53.9346 152.045 82.6646 147.325 86.9996 148.225Z" fill="#263238"/>
<path d="M60.2296 138.715C60.2296 138.715 64.1696 149.77 63.4196 151C62.6696 152.23 52.5346 157.3 52.5346 157.3L27.1646 167.045C27.1646 167.045 24.5596 162.9 24.5596 156.545C24.5596 150.19 33.3846 138.725 33.3846 138.725L60.2296 138.715Z" fill="#263238"/>
<path d="M52.71 151.5C52.7476 151.526 52.7878 151.548 52.83 151.565L53.19 151.73L54.595 152.355L59.87 154.655L78.075 162.49L77.99 162.375C78.22 165.695 78.49 169.28 78.725 172.99C79.345 181.665 79.915 189.66 80.365 195.99V196.105H80.48L91.54 195.135L94.585 194.85L95.38 194.77L95.65 194.73C95.5585 194.722 95.4665 194.722 95.375 194.73L94.58 194.78L91.53 195.005L80.46 195.875L80.585 195.98C80.15 189.655 79.585 181.655 79.005 172.98C78.745 169.27 78.505 165.685 78.255 162.365V162.285L78.18 162.25L59.935 154.5L54.63 152.28L53.21 151.695L52.84 151.55C52.798 151.53 52.7545 151.513 52.71 151.5Z" fill="#455A64"/>
<path d="M32.5347 152.585C32.779 152.547 33.0187 152.484 33.2497 152.395L35.1597 151.775C37.2443 151.071 39.3808 150.531 41.5497 150.16C43.7196 149.806 45.9347 149.835 48.0947 150.245C49.7447 150.59 50.6947 151.06 50.7147 151.005C50.5097 150.866 50.2879 150.754 50.0547 150.67C49.4351 150.409 48.7945 150.202 48.1397 150.05C45.957 149.575 43.7039 149.517 41.4997 149.88C39.3133 150.25 37.1659 150.82 35.0847 151.585C34.2847 151.87 33.6447 152.115 33.1997 152.29C32.9703 152.37 32.7478 152.469 32.5347 152.585Z" fill="#455A64"/>
<path d="M36.1196 146.76C36.8589 146.715 37.6003 146.715 38.3396 146.76C39.0246 146.805 39.8396 146.91 40.7396 147.015C41.6396 147.12 42.6346 147.245 43.6646 147.44C45.427 147.72 47.1162 148.348 48.6346 149.285C49.2405 149.707 49.8169 150.17 50.3596 150.67C50.2601 150.494 50.1355 150.334 49.9896 150.195C49.6147 149.791 49.1973 149.429 48.7446 149.115C47.2267 148.112 45.5116 147.445 43.7146 147.16C42.6746 146.965 41.6746 146.85 40.7696 146.755C39.8646 146.66 39.0446 146.58 38.3496 146.56C37.802 146.536 37.2532 146.559 36.7096 146.63C36.5078 146.645 36.3091 146.689 36.1196 146.76Z" fill="#455A64"/>
<path d="M47.3247 57.9401C44.4097 57.4401 41.8247 58.5651 39.3797 60.2101C36.8773 61.969 34.9703 64.4487 33.9127 67.3187C32.8551 70.1888 32.697 73.313 33.4597 76.2751C33.8819 77.7805 34.6047 79.1847 35.5843 80.4032C36.5639 81.6218 37.7802 82.6293 39.1597 83.3651C42.9547 85.2901 47.8097 84.6201 51.2097 82.0501C54.6097 79.4801 56.5447 75.2351 56.7097 70.9801C56.8672 68.0291 56.0942 65.1032 54.4997 62.6151C53.6913 61.3858 52.6384 60.3363 51.4065 59.532C50.1746 58.7277 48.7902 58.1858 47.3397 57.9401" fill="#263238"/>
<path d="M39.0249 67.8651C39.4549 66.7451 39.2849 65.5001 39.4549 64.3151C39.8299 61.7101 41.9549 59.6201 44.3549 58.6051C46.6149 57.6601 49.3549 57.8651 52.0949 58.7451C53.9848 59.3179 55.6724 60.4175 56.9599 61.9151C57.7791 62.9311 58.3429 64.1287 58.6039 65.4076C58.8649 66.6865 58.8155 68.0092 58.4599 69.2651L45.1299 67.3251C43.8799 68.3551 42.5999 69.4101 41.0849 69.9851C40.6481 70.1766 40.1694 70.2524 39.6949 70.2051C39.4585 70.1769 39.2352 70.0814 39.0516 69.9297C38.8681 69.7781 38.7321 69.5769 38.6599 69.3501C38.5399 68.8451 38.8399 68.3501 39.0249 67.8651Z" fill="#263238"/>
<path d="M52.38 62.4251L40.74 64.8951C40.2005 64.9309 39.6937 65.1663 39.3184 65.5555C38.9431 65.9447 38.7262 66.4597 38.71 67.0001L38.85 92.1951C38.8618 93.9153 39.4379 95.584 40.49 96.9451L41.6 98.3751C44.135 101.64 49.26 101.31 51.195 97.6601C51.3133 97.4528 51.4041 97.2309 51.465 97.0001C51.5 96.7751 51.56 96.6251 51.57 96.4351L51.795 93.9751C51.905 91.7351 51.925 89.4751 51.925 89.4751C51.925 89.4751 56.69 88.8751 57.925 82.7351C58.53 79.6851 58.57 74.6401 58.47 70.5151C58.365 66.8201 56.09 62.1801 52.38 62.4251Z" fill="#FFBE9D"/>
<path d="M56.6846 75.265C56.6781 75.471 56.5913 75.6663 56.4428 75.8093C56.2942 75.9522 56.0957 76.0314 55.8896 76.03C55.7884 76.0347 55.6873 76.019 55.5923 75.9838C55.4972 75.9486 55.4103 75.8946 55.3366 75.8251C55.2628 75.7556 55.2039 75.6719 55.1632 75.5791C55.1225 75.4864 55.1008 75.3863 55.0996 75.285C55.1073 75.0789 55.1943 74.8838 55.3425 74.7403C55.4906 74.5969 55.6884 74.5161 55.8946 74.515C55.9961 74.511 56.0973 74.5273 56.1924 74.5631C56.2874 74.5989 56.3743 74.6533 56.4479 74.7232C56.5216 74.7931 56.5805 74.8771 56.6211 74.9702C56.6618 75.0632 56.6834 75.1635 56.6846 75.265Z" fill="#263238"/>
<path d="M57.2649 73.11C57.1599 73.21 56.5799 72.745 55.7249 72.715C54.8699 72.685 54.2249 73.085 54.1449 72.975C54.0649 72.865 54.2049 72.745 54.4849 72.56C54.864 72.3164 55.3098 72.1975 55.7599 72.22C56.202 72.235 56.6277 72.3909 56.9749 72.665C57.2299 72.88 57.3149 73.07 57.2649 73.11Z" fill="#263238"/>
<path d="M49.0448 75.0701C49.0396 75.277 48.9534 75.4736 48.8047 75.6175C48.656 75.7615 48.4568 75.8414 48.2498 75.8401C48.149 75.8441 48.0484 75.8279 47.954 75.7923C47.8596 75.7568 47.7732 75.7027 47.7001 75.6333C47.6269 75.5638 47.5684 75.4804 47.528 75.388C47.4876 75.2956 47.4661 75.1959 47.4648 75.0951C47.4701 74.889 47.5556 74.6932 47.7032 74.5493C47.8508 74.4055 48.0487 74.325 48.2548 74.3251C48.3559 74.3211 48.4567 74.3373 48.5514 74.3727C48.6461 74.4082 48.7328 74.4622 48.8064 74.5316C48.88 74.6009 48.939 74.6843 48.9799 74.7768C49.0209 74.8692 49.0429 74.969 49.0448 75.0701Z" fill="#263238"/>
<path d="M49.1696 72.9052C49.0646 73.0052 48.4846 72.5352 47.6296 72.5052C46.7746 72.4752 46.1296 72.8752 46.0496 72.7702C45.9696 72.6652 46.1096 72.5402 46.3946 72.3502C46.7735 72.1103 47.2166 71.9917 47.6646 72.0102C48.1085 72.028 48.5355 72.1855 48.8846 72.4602C49.1346 72.6702 49.2196 72.8602 49.1696 72.9052Z" fill="#263238"/>
<path d="M51.7249 79.3851C52.1811 79.2676 52.6491 79.2022 53.1199 79.1901C53.3399 79.1901 53.545 79.1401 53.5899 78.9951C53.6156 78.7713 53.5738 78.545 53.47 78.3451C53.285 77.8101 53.0899 77.2501 52.8899 76.6601C52.0849 74.2651 51.515 72.3001 51.61 72.2701C51.705 72.2401 52.44 74.1551 53.24 76.5501C53.43 77.1401 53.615 77.7001 53.79 78.2401C53.9184 78.5081 53.9468 78.8131 53.8699 79.1001C53.8347 79.1752 53.7832 79.2415 53.7192 79.2942C53.6553 79.347 53.5804 79.3849 53.4999 79.4051C53.3783 79.4303 53.2542 79.442 53.13 79.4401C52.6612 79.4841 52.1888 79.4656 51.7249 79.3851Z" fill="#263238"/>
<path d="M51.9247 89.5001C49.0151 89.4336 46.1812 88.5594 43.7397 86.9751C43.7397 86.9751 45.6497 91.3301 51.8547 90.9751L51.9247 89.5001Z" fill="#EB996E"/>
<path d="M51.2845 81.4251C51.1303 81.2149 50.9248 81.0475 50.6876 80.939C50.4505 80.8305 50.1895 80.7844 49.9295 80.8051C49.7375 80.8153 49.5495 80.8649 49.3775 80.951C49.2054 81.037 49.0529 81.1576 48.9295 81.3051C48.8125 81.4413 48.7393 81.6096 48.7197 81.7881C48.7001 81.9666 48.7349 82.1468 48.8195 82.3051C48.9508 82.4627 49.1259 82.5777 49.3227 82.6355C49.5194 82.6934 49.7289 82.6915 49.9245 82.6301C50.3336 82.5043 50.7129 82.2968 51.0395 82.0201C51.1394 81.9576 51.2261 81.876 51.2945 81.7801C51.3259 81.7327 51.3427 81.677 51.3427 81.6201C51.3427 81.5632 51.3259 81.5076 51.2945 81.4601" fill="#EB996E"/>
<path d="M49.1947 79.88C49.3347 79.88 49.2997 80.8 50.0647 81.49C50.8297 82.18 51.8197 82.115 51.8247 82.245C51.8247 82.3 51.5947 82.415 51.1797 82.41C50.6367 82.3959 50.1161 82.1905 49.7097 81.83C49.3235 81.4894 49.0835 81.013 49.0397 80.5C48.9997 80.095 49.1297 79.87 49.1947 79.88Z" fill="#263238"/>
<path d="M49.1196 70.3752C49.0296 70.6052 48.1796 70.4602 47.1746 70.5402C46.1696 70.6202 45.3546 70.8652 45.2296 70.6502C45.1746 70.5502 45.3196 70.3352 45.6546 70.1252C46.0988 69.8623 46.5994 69.7098 47.1146 69.6802C47.6263 69.6367 48.1408 69.7173 48.6146 69.9152C48.9996 70.0752 49.1596 70.2652 49.1196 70.3752Z" fill="#263238"/>
<path d="M57.1596 69.3752C57.0046 69.5652 56.4246 69.3402 55.7196 69.3002C55.0146 69.2602 54.4096 69.3802 54.2796 69.1752C54.2196 69.0752 54.3246 68.8852 54.5896 68.7102C54.9484 68.4984 55.3645 68.404 55.7796 68.4402C56.1933 68.4625 56.5899 68.6127 56.9146 68.8702C57.1546 69.0802 57.2296 69.2852 57.1596 69.3752Z" fill="#263238"/>
<path d="M36.8897 66.0651C38.0997 62.5201 43.3897 57.6901 47.0997 58.0251L52.9997 61.7201C52.7849 62.7347 52.2998 63.6724 51.5956 64.4337C50.8915 65.1951 49.9945 65.7519 48.9997 66.0451C47.9347 66.3451 46.6647 66.4101 45.9997 67.3051C45.3347 68.2001 45.6897 69.5751 45.0747 70.5151C44.2197 71.8251 41.9647 71.7151 41.3147 73.1351C41.0347 73.7551 41.1597 74.5051 40.8647 75.1351C40.4747 75.9551 38.3647 76.9601 37.4997 76.6701C36.6347 76.3801 36.6647 74.9051 36.3997 74.1251C36.0586 73.2476 36.0338 72.2788 36.3297 71.3851C36.7597 69.6301 36.3147 67.7551 36.8897 66.0651Z" fill="#263238"/>
<path d="M40.0599 77.4351C40.0599 76.9751 39.5599 75.8701 39.1349 75.7801C37.9299 75.5451 35.7399 75.5601 35.5999 78.6401C35.4099 82.8501 39.6749 82.1701 39.6899 82.0501C39.7049 81.9301 39.9999 79.0251 40.0599 77.4351Z" fill="#FFBE9D"/>
<path d="M38.4999 80.4001C38.4999 80.4001 38.4249 80.4451 38.2949 80.4951C38.1201 80.5655 37.9248 80.5655 37.7499 80.4951C37.3099 80.3101 36.9699 79.5851 36.9799 78.8301C36.9881 78.4674 37.0751 78.1108 37.2349 77.7851C37.2812 77.6557 37.3581 77.5394 37.4591 77.4463C37.5601 77.3531 37.6822 77.2858 37.8149 77.2501C37.8997 77.2308 37.9885 77.2423 38.0655 77.2827C38.1425 77.323 38.2026 77.3895 38.2349 77.4701C38.2849 77.5901 38.2349 77.6751 38.2799 77.6801C38.3249 77.6851 38.3699 77.6151 38.3449 77.4401C38.3292 77.335 38.2759 77.2391 38.1949 77.1701C38.1394 77.1227 38.0751 77.0867 38.0055 77.0644C37.936 77.0421 37.8627 77.0338 37.7899 77.0401C37.6157 77.0676 37.4514 77.1389 37.3123 77.2474C37.1732 77.3558 37.064 77.4979 36.9949 77.6601C36.8007 78.0163 36.696 78.4145 36.6899 78.8201C36.6899 79.6701 37.0749 80.4851 37.6899 80.6901C37.8014 80.7275 37.9197 80.7397 38.0364 80.7259C38.1531 80.7121 38.2653 80.6725 38.3649 80.6101C38.4599 80.5001 38.4999 80.4051 38.4999 80.4001Z" fill="#EB996E"/>
<path d="M36 65.0001C36 63.6801 34.37 62.8201 33.085 62.5001C31.7739 62.2748 30.4257 62.5324 29.29 63.2251C28.615 63.5951 27.935 64.1251 27.79 64.8801C27.645 65.6351 28.365 66.5351 29.085 66.2651C28.7331 66.3802 28.4112 66.572 28.1425 66.8267C27.8738 67.0814 27.665 67.3926 27.5312 67.7378C27.3974 68.083 27.342 68.4536 27.3689 68.8229C27.3958 69.1921 27.5044 69.5508 27.6868 69.873C27.8693 70.1951 28.121 70.4728 28.4238 70.6858C28.7266 70.8988 29.0729 71.042 29.4378 71.1048C29.8026 71.1677 30.1769 71.1488 30.5335 71.0494C30.8901 70.95 31.2203 70.7726 31.5 70.5301C31.1347 71.7512 30.3617 72.8101 29.31 73.5301C30.3979 73.6862 31.5078 73.5529 32.5279 73.1436C33.5479 72.7343 34.4421 72.0635 35.1204 71.1986C35.7986 70.3338 36.2371 69.3055 36.3915 68.2173C36.5459 67.1291 36.4109 66.0195 36 65.0001Z" fill="#263238"/>
<path d="M33.0696 71.6701C32.9444 71.2607 32.8903 70.8328 32.9096 70.4051C32.8928 68.3251 33.5761 66.2998 34.8496 64.6551C35.09 64.3015 35.3913 63.9933 35.7396 63.7451C34.8602 64.8679 34.1587 66.1192 33.6596 67.4551C32.8846 69.7051 33.1646 71.6751 33.0696 71.6701Z" fill="#FA4500"/>
<path d="M51.77 60.45C52.155 62.165 54.77 64.36 55.905 65.695C58.085 68.24 58.515 69.085 58.495 74.78C59.525 72.815 60.315 70.885 60.235 68.67C60.1865 66.4262 59.3186 64.2778 57.795 62.63C57.0326 61.826 56.0936 61.2104 55.0522 60.8321C54.0108 60.4537 52.8957 60.3229 51.795 60.45" fill="#263238"/>
<path d="M69.6248 107.29C69.6248 107.29 65.0848 99.725 63.8248 98.195C62.8131 97.0125 61.5416 96.0798 60.1098 95.47C59.5443 95.2258 58.9518 95.0496 58.3448 94.945L51.8148 93.5C51.8148 93.5 51.8148 97.955 47.1398 98.23C42.4648 98.505 38.5448 92 38.5448 92C38.5448 92 30.9998 93.17 29.1998 94.1C27.3998 95.03 24.5598 96.205 22.9998 104L21.9048 111.64L34.9048 112.84L36.1498 132.16L42.5948 136.66C42.5948 136.66 60.4698 141.305 61.5948 141.61C62.7198 141.915 63.0948 112.85 63.0948 112.85C63.0948 112.85 67.7248 109.895 69.6248 107.29Z" fill="#263238"/>
<path d="M61.0649 104.04C61.1703 104.217 61.2558 104.405 61.3199 104.6C61.4649 104.965 61.6549 105.5 61.8649 106.17C62.958 109.681 63.4085 113.36 63.1949 117.03C63.1549 117.73 63.0999 118.295 63.0399 118.685C63.0267 118.888 62.9915 119.089 62.9349 119.285C62.9111 119.082 62.9111 118.878 62.9349 118.675C62.9599 118.285 62.9899 117.72 63.0049 117.02C63.0537 115.2 62.9701 113.378 62.7549 111.57C62.5295 109.765 62.1718 107.978 61.6849 106.225C61.4999 105.55 61.3349 105.005 61.2149 104.635C61.1441 104.443 61.0939 104.243 61.0649 104.04Z" fill="#455A64"/>
<path d="M60.4999 135.685L35.9999 130.355L34.8699 112.855L23.9849 111.855C23.9849 111.855 24.3899 123.815 24.8049 127.355C25.4099 132.47 28.4299 139.45 30.1999 140.855C31.9699 142.26 61.5749 141.62 61.5749 141.62L60.4999 135.685Z" fill="#FFBE9D"/>
<path d="M74.4049 138.855C74.3235 139.024 74.1933 139.165 74.0311 139.259C73.8689 139.354 73.6822 139.398 73.4949 139.385C73.4151 139.379 73.3362 139.364 73.2599 139.34C72.7149 139.165 72.7599 138.06 72.7599 138.06L70.1699 137.64C70.1699 137.64 66.7949 139.815 65.5949 141.255C64.3949 142.695 61.3349 141.53 61.3349 141.53L60.2749 136L65.0499 131.685C65.0499 131.685 64.7599 131.94 65.0899 131.135C65.4199 130.33 66.9149 130.635 66.9149 130.635C67.1499 130.235 68.1299 130.095 68.1299 130.095L72.3199 130.595C72.7456 130.644 73.1548 130.789 73.5174 131.017C73.8799 131.245 74.1867 131.552 74.4149 131.915L76.1899 134.72C76.1899 134.72 77.1249 136.72 76.9749 137.22C76.9081 137.421 76.768 137.589 76.5826 137.691C76.3973 137.793 76.1802 137.821 75.9749 137.77C75.9749 137.77 75.7699 139.1 75.4199 139.145C75.0624 139.126 74.7115 139.042 74.3849 138.895L74.4049 138.855Z" fill="#FFBE9D"/>
<path d="M65.5 134.885C65.5 134.93 66.06 134.885 66.955 134.915C68.1172 134.971 69.2663 135.187 70.37 135.555C70.9776 135.759 71.5678 136.012 72.135 136.31C72.635 136.595 73.165 136.81 73.33 137.195C73.3672 137.275 73.3827 137.363 73.3748 137.451C73.3669 137.539 73.3359 137.623 73.285 137.695C73.2092 137.813 73.0994 137.906 72.97 137.96C72.8512 138.001 72.7257 138.02 72.6 138.015C72.6 138.015 72.73 138.13 73 138.06C73.163 138.016 73.3059 137.917 73.405 137.78C73.477 137.689 73.5241 137.581 73.5416 137.466C73.5592 137.351 73.5465 137.234 73.505 137.125C73.3985 136.884 73.2249 136.68 73.005 136.535C72.775 136.39 72.535 136.235 72.27 136.09C71.6958 135.775 71.0952 135.511 70.475 135.3C69.3475 134.919 68.1652 134.725 66.975 134.725C66.478 134.7 65.9802 134.754 65.5 134.885Z" fill="#EB996E"/>
<path d="M65.1997 137.555C65.1997 137.635 66.9097 137.555 69.0047 137.685C71.0997 137.815 72.7797 138.065 72.7947 137.985C72.4451 137.847 72.0784 137.758 71.7047 137.72C70.8161 137.569 69.9197 137.469 69.0197 137.42C68.1187 137.37 67.2157 137.37 66.3147 137.42C65.9386 137.413 65.5634 137.459 65.1997 137.555Z" fill="#EB996E"/>
<path d="M74.3799 138.75C74.4167 138.605 74.4352 138.455 74.4349 138.305C74.4604 137.896 74.4604 137.485 74.4349 137.075C74.4207 136.789 74.3822 136.505 74.3199 136.225C74.2445 135.898 74.1051 135.588 73.9099 135.315C73.4971 134.682 72.9636 134.137 72.3399 133.71C71.724 133.284 71.0506 132.947 70.3399 132.71C69.7503 132.544 69.1423 132.451 68.5299 132.435C68.0299 132.435 67.5999 132.435 67.3099 132.435C67.1584 132.425 67.0063 132.44 66.8599 132.48C67.41 132.559 67.9643 132.606 68.5199 132.62C69.1135 132.66 69.7006 132.767 70.2699 132.94C70.9519 133.189 71.599 133.525 72.1949 133.94C72.7846 134.354 73.2931 134.872 73.6949 135.47C74.0237 135.956 74.2123 136.524 74.2399 137.11C74.3499 138.105 74.3249 138.75 74.3799 138.75Z" fill="#EB996E"/>
<path d="M68.335 131.15C68.335 131.19 68.96 131.21 69.96 131.325C70.96 131.44 72.46 131.54 73.345 132.87C74.1965 133.863 74.9066 134.968 75.455 136.155C75.6365 136.665 75.7704 137.191 75.855 137.725C75.8845 137.578 75.8845 137.427 75.855 137.28C75.8294 136.874 75.7469 136.473 75.61 136.09C75.1031 134.856 74.3989 133.713 73.525 132.705C73.2916 132.396 73.0193 132.119 72.715 131.88C72.4148 131.663 72.0751 131.507 71.715 131.42C71.1346 131.264 70.5398 131.169 69.94 131.135C69.4063 131.077 68.8675 131.082 68.335 131.15Z" fill="#EB996E"/>
<path d="M66.4999 140.365C66.5885 140.309 66.6721 140.245 66.7499 140.175L67.4499 139.61C68.3307 138.925 69.2506 138.293 70.2049 137.715H70.1449L72.7349 138.155L72.6449 138.045C72.6366 138.258 72.6534 138.471 72.6949 138.68C72.7289 138.913 72.8316 139.131 72.9899 139.305C73.0848 139.391 73.2032 139.447 73.3299 139.465C73.4505 139.487 73.5742 139.487 73.6949 139.465C73.9467 139.428 74.1762 139.3 74.3399 139.105C74.3836 139.059 74.4222 139.009 74.4549 138.955L74.4799 138.91L74.3299 138.965L74.4099 138.995C74.5199 139.04 74.6299 139.08 74.7449 139.115C74.8599 139.15 74.9749 139.18 75.0999 139.205C75.1647 139.21 75.23 139.21 75.2949 139.205C75.3774 139.21 75.4598 139.195 75.5349 139.16C75.6486 139.07 75.7352 138.951 75.7849 138.815C75.8377 138.7 75.8812 138.582 75.9149 138.46C75.9852 138.219 76.0403 137.973 76.0799 137.725L75.9299 137.83C76.1055 137.867 76.2878 137.855 76.4576 137.797C76.6274 137.739 76.7784 137.637 76.8949 137.5C77.0104 137.359 77.074 137.182 77.0749 137C77.0609 136.831 77.0307 136.663 76.9849 136.5C76.7885 135.863 76.5497 135.24 76.2699 134.635L75.3249 133.135L74.7249 132.19C74.5426 131.859 74.3228 131.55 74.0699 131.27C73.8019 131 73.4822 130.788 73.1299 130.645C72.7865 130.517 72.4257 130.443 72.0599 130.425L68.1149 129.98H68.0849C67.8475 130.018 67.6147 130.08 67.3899 130.165C67.1499 130.237 66.9395 130.384 66.7899 130.585L66.9349 130.54C66.7217 130.441 66.4875 130.397 66.253 130.41C66.0185 130.423 65.7908 130.493 65.5899 130.615C65.24 130.87 65.0018 131.249 64.9249 131.675L64.9549 131.62L61.6649 134.58L60.7799 135.395C60.6708 135.484 60.5718 135.584 60.4849 135.695C60.6022 135.618 60.7126 135.531 60.8149 135.435L61.7399 134.66L65.0849 131.77H65.1099V131.735C65.1814 131.364 65.3903 131.034 65.6949 130.81C65.8668 130.713 66.0595 130.658 66.2569 130.65C66.4543 130.642 66.6508 130.682 66.8299 130.765L66.9199 130.8L66.9749 130.72C67.1053 130.565 67.2796 130.454 67.4749 130.4C67.6839 130.324 67.9 130.269 68.1199 130.235H68.0849L72.0299 130.7C72.3718 130.72 72.7088 130.791 73.0299 130.91C73.349 131.038 73.6384 131.23 73.8799 131.475C74.1186 131.743 74.3265 132.036 74.4999 132.35L75.0999 133.3C75.4249 133.8 75.7449 134.3 76.0449 134.8C76.3231 135.389 76.5587 135.997 76.7499 136.62C76.7941 136.765 76.8226 136.914 76.8349 137.065C76.8376 137.195 76.7931 137.321 76.7099 137.42C76.6248 137.52 76.5142 137.594 76.39 137.635C76.2658 137.677 76.1326 137.684 76.0049 137.655H75.8699V137.78C75.8317 138.018 75.78 138.253 75.7149 138.485C75.6724 138.691 75.5797 138.883 75.4449 139.045C75.4101 139.051 75.3746 139.051 75.3399 139.045H75.1799C75.0749 139.045 74.9649 138.995 74.8549 138.965L74.5349 138.855L74.4599 138.825L74.3049 138.88V138.91C74.2806 138.953 74.2522 138.993 74.2199 139.03C74.0928 139.182 73.9153 139.283 73.7199 139.315C73.6259 139.335 73.5288 139.335 73.4349 139.315C73.3466 139.307 73.263 139.272 73.1949 139.215C72.9754 138.898 72.8762 138.513 72.9149 138.13V138.035H72.8249L70.2249 137.63H70.1949H70.1699C69.2187 138.225 68.3083 138.883 67.4449 139.6C67.1449 139.855 66.9199 140.06 66.7699 140.2C66.6742 140.245 66.5837 140.3 66.4999 140.365Z" fill="#EB996E"/>
<path d="M106.16 122.77L73.9249 123.035C72.8749 123.035 71.8799 123.535 71.7199 124.57L68.2199 148.07H51.5899C51.3453 148.088 51.1164 148.197 50.9494 148.377C50.7823 148.556 50.6895 148.792 50.6895 149.038C50.6895 149.283 50.7823 149.519 50.9494 149.698C51.1164 149.878 51.3453 149.987 51.5899 150.005H104.63L108.255 125.205C108.3 124.904 108.28 124.596 108.195 124.303C108.111 124.01 107.964 123.738 107.765 123.507C107.567 123.276 107.32 123.091 107.043 122.963C106.766 122.836 106.465 122.77 106.16 122.77Z" fill="#E0E0E0"/>
<path d="M106.16 122.77C106.328 122.763 106.496 122.78 106.66 122.82C107.089 122.922 107.476 123.154 107.767 123.484C108.059 123.814 108.242 124.227 108.29 124.665C108.302 125.11 108.262 125.555 108.17 125.99L107.705 129.265C106.995 134.19 105.975 141.29 104.705 150.02V150.105H104.62L53.1647 150.135H51.7797C51.528 150.159 51.2747 150.111 51.0497 149.995C50.8777 149.901 50.7341 149.762 50.6342 149.593C50.5342 149.424 50.4814 149.231 50.4814 149.035C50.4814 148.839 50.5342 148.646 50.6342 148.477C50.7341 148.308 50.8777 148.17 51.0497 148.075C51.2755 147.962 51.5285 147.916 51.7797 147.94H68.1997L68.0747 148.05C69.3397 139.635 70.5247 131.785 71.5747 124.74C71.6094 124.27 71.8243 123.831 72.1747 123.515C72.5245 123.22 72.9512 123.031 73.4047 122.97C73.8367 122.928 74.2709 122.913 74.7047 122.925H75.9697L80.8247 122.895L89.4497 122.84L101.73 122.775H106.15C106.15 122.775 106.055 122.775 105.865 122.775H105.015L101.73 122.82L89.4497 122.955L80.8247 123.045L75.9697 123.09H74.7047C74.2826 123.082 73.8603 123.097 73.4397 123.135C73.0244 123.19 72.6338 123.364 72.3147 123.635C72.1592 123.775 72.0327 123.944 71.9426 124.133C71.8526 124.322 71.8006 124.526 71.7897 124.735C70.7397 131.78 69.5697 139.63 68.2897 148.045V148.155H51.7897C51.5843 148.129 51.3757 148.164 51.1897 148.255C51.0205 148.352 50.8899 148.505 50.8198 148.687C50.7497 148.869 50.7444 149.07 50.8047 149.255C50.8762 149.443 51.0105 149.6 51.1847 149.7C51.3726 149.791 51.5822 149.827 51.7897 149.805H53.1747L104.63 149.835L104.53 149.92C105.825 141.195 106.875 134.1 107.605 129.175C107.79 127.95 107.955 126.855 108.105 125.91C108.198 125.481 108.243 125.044 108.24 124.605C108.198 124.177 108.025 123.772 107.745 123.446C107.465 123.119 107.091 122.887 106.675 122.78C106.503 122.768 106.331 122.765 106.16 122.77Z" fill="#263238"/>
<path d="M88.6748 138.11C89.7904 138.11 90.6948 137.206 90.6948 136.09C90.6948 134.974 89.7904 134.07 88.6748 134.07C87.5592 134.07 86.6548 134.974 86.6548 136.09C86.6548 137.206 87.5592 138.11 88.6748 138.11Z" fill="white"/>
<path d="M69.4998 149.785C69.5448 149.785 70.5698 143.81 71.7898 136.425C73.0098 129.04 73.9648 123.04 73.9198 123.035C73.8748 123.03 72.8448 129.01 71.6248 136.395C70.4048 143.78 69.4598 149.78 69.4998 149.785Z" fill="#263238"/>
</svg>
